OCR-B.ufo
<glyph name="exclam" format="2">
  <advance width="886"/>
  <unicode hex="0021"/>
  <outline>
    <contour>
      <point x="392" y="374" type="line"/>
      <point x="381" y="972" type="line"/>
      <point x="521" y="972" type="line"/>
      <point x="509" y="374" type="line"/>
    </contour>
    <contour>
      <point x="353" y="0" type="line"/>
      <point x="353" y="150" type="line"/>
      <point x="533" y="150" type="line"/>
      <point x="533" y="0" type="line"/>
    </contour>
  </outline>
</glyph>
<glyph name="quotedbl" format="2">
  <advance width="886"/>
  <unicode hex="0022"/>
  <outline>
    <contour>
      <point x="536" y="600" type="line"/>
      <point x="536" y="970" type="line"/>
      <point x="695" y="970" type="line"/>
      <point x="645" y="600" type="line"/>
    </contour>
    <contour>
      <point x="191" y="602" type="line"/>
      <point x="191" y="972" type="line"/>
      <point x="350" y="972" type="line"/>
      <point x="301" y="602" type="line"/>
    </contour>
  </outline>
</glyph>
<glyph name="numbersign" format="2">
  <advance width="886"/>
  <unicode hex="0023"/>
  <outline>
    <contour>
      <point x="323" y="364" type="line"/>
      <point x="512" y="364" type="line"/>
      <point x="565" y="589" type="line"/>
      <point x="374" y="589" type="line"/>
    </contour>
    <contour>
      <point x="299" y="684" type="line"/>
      <point x="359" y="952" type="line"/>
      <point x="451" y="952" type="line"/>
      <point x="395" y="684" type="line"/>
      <point x="583" y="684" type="line"/>
      <point x="638" y="952" type="line"/>
      <point x="734" y="952" type="line"/>
      <point x="673" y="684" type="line"/>
      <point x="743" y="684" type="line"/>
      <point x="721" y="589" type="line"/>
      <point x="656" y="589" type="line"/>
      <point x="603" y="364" type="line"/>
      <point x="710" y="364" type="line"/>
      <point x="689" y="265" type="line"/>
      <point x="581" y="265" type="line"/>
      <point x="521" y="-15" type="line"/>
      <point x="433" y="-15" type="line"/>
      <point x="493" y="265" type="line"/>
      <point x="301" y="265" type="line"/>
      <point x="236" y="-15" type="line"/>
      <point x="143" y="-15" type="line"/>
      <point x="207" y="265" type="line"/>
      <point x="143" y="265" type="line"/>
      <point x="164" y="364" type="line"/>
      <point x="229" y="364" type="line"/>
      <point x="281" y="589" type="line"/>
      <point x="176" y="589" type="line"/>
      <point x="195" y="684" type="line"/>
    </contour>
  </outline>
</glyph>
<glyph name="dollar" format="2">
  <advance width="886"/>
  <unicode hex="0024"/>
  <outline>
    <contour>
      <point x="501" y="180" type="line"/>
      <point x="563" y="180"/>
      <point x="593" y="198" type="qcurve" smooth="yes"/>
      <point x="645" y="232"/>
      <point x="645" y="289" type="qcurve" smooth="yes"/>
      <point x="645" y="341"/>
      <point x="593" y="368" type="qcurve" smooth="yes"/>
      <point x="554" y="390"/>
      <point x="501" y="415" type="qcurve"/>
    </contour>
    <contour>
      <point x="401" y="584" type="line"/>
      <point x="401" y="794" type="line"/>
      <point x="361" y="794"/>
      <point x="321" y="782" type="qcurve" smooth="yes"/>
      <point x="255" y="762"/>
      <point x="255" y="710" type="qcurve" smooth="yes"/>
      <point x="257" y="655"/>
      <point x="311" y="624" type="qcurve"/>
    </contour>
    <contour>
      <point x="632" y="697" type="line"/>
      <point x="623" y="747"/>
      <point x="602" y="763" type="qcurve" smooth="yes"/>
      <point x="561" y="793"/>
      <point x="501" y="794" type="qcurve"/>
      <point x="501" y="553" type="line"/>
      <point x="614" y="504" type="line" smooth="yes"/>
      <point x="689" y="468"/>
      <point x="720" y="421" type="qcurve" smooth="yes"/>
      <point x="757" y="366"/>
      <point x="758" y="286" type="qcurve" smooth="yes"/>
      <point x="758" y="284" type="line" smooth="yes"/>
      <point x="758" y="185"/>
      <point x="666" y="114" type="qcurve" smooth="yes"/>
      <point x="615" y="72"/>
      <point x="501" y="70" type="qcurve"/>
      <point x="501" y="0" type="line"/>
      <point x="401" y="0" type="line"/>
      <point x="401" y="70" type="line"/>
      <point x="255" y="72"/>
      <point x="192" y="134" type="qcurve" smooth="yes"/>
      <point x="127" y="198"/>
      <point x="126" y="277" type="qcurve"/>
      <point x="251" y="277" type="line"/>
      <point x="251" y="234"/>
      <point x="291" y="210" type="qcurve" smooth="yes"/>
      <point x="341" y="180"/>
      <point x="401" y="180" type="qcurve"/>
      <point x="401" y="454" type="line"/>
      <point x="284" y="499"/>
      <point x="202" y="554" type="qcurve" smooth="yes"/>
      <point x="135" y="600"/>
      <point x="135" y="715" type="qcurve" smooth="yes"/>
      <point x="135" y="820"/>
      <point x="237" y="866" type="qcurve" smooth="yes"/>
      <point x="307" y="899"/>
      <point x="376" y="899" type="qcurve" smooth="yes"/>
      <point x="389" y="899"/>
      <point x="401" y="898" type="qcurve"/>
      <point x="401" y="974" type="line"/>
      <point x="501" y="974" type="line"/>
      <point x="501" y="901" type="line"/>
      <point x="641" y="894"/>
      <point x="683" y="848" type="qcurve" smooth="yes"/>
      <point x="750" y="778"/>
      <point x="752" y="697" type="qcurve"/>
    </contour>
  </outline>
</glyph>
<glyph name="percent" format="2">
  <advance width="886"/>
  <unicode hex="0025"/>
  <outline>
    <contour>
      <point x="293" y="709" type="qcurve" smooth="yes"/>
      <point x="324" y="709"/>
      <point x="338" y="726" type="qcurve" smooth="yes"/>
      <point x="356" y="747"/>
      <point x="356" y="785" type="qcurve" smooth="yes"/>
      <point x="356" y="822"/>
      <point x="338" y="843" type="qcurve" smooth="yes"/>
      <point x="324" y="859"/>
      <point x="293" y="859" type="qcurve" smooth="yes"/>
      <point x="262" y="859"/>
      <point x="248" y="843" type="qcurve" smooth="yes"/>
      <point x="230" y="822"/>
      <point x="230" y="785" type="qcurve" smooth="yes"/>
      <point x="230" y="747"/>
      <point x="248" y="726" type="qcurve" smooth="yes"/>
      <point x="262" y="709"/>
    </contour>
    <contour>
      <point x="293" y="624" type="qcurve" smooth="yes"/>
      <point x="227" y="624"/>
      <point x="197" y="659" type="qcurve" smooth="yes"/>
      <point x="152" y="710"/>
      <point x="152" y="785" type="qcurve" smooth="yes"/>
      <point x="152" y="859"/>
      <point x="197" y="911" type="qcurve" smooth="yes"/>
      <point x="227" y="945"/>
      <point x="293" y="945" type="qcurve" smooth="yes"/>
      <point x="359" y="945"/>
      <point x="389" y="911" type="qcurve" smooth="yes"/>
      <point x="434" y="859"/>
      <point x="434" y="785" type="qcurve" smooth="yes"/>
      <point x="434" y="710"/>
      <point x="389" y="659" type="qcurve" smooth="yes"/>
      <point x="359" y="624"/>
    </contour>
    <contour>
      <point x="593" y="71" type="qcurve" smooth="yes"/>
      <point x="624" y="71"/>
      <point x="638" y="87" type="qcurve" smooth="yes"/>
      <point x="656" y="108"/>
      <point x="656" y="145" type="qcurve" smooth="yes"/>
      <point x="656" y="183"/>
      <point x="638" y="204" type="qcurve" smooth="yes"/>
      <point x="624" y="221"/>
      <point x="593" y="221" type="qcurve" smooth="yes"/>
      <point x="562" y="221"/>
      <point x="548" y="204" type="qcurve" smooth="yes"/>
      <point x="530" y="183"/>
      <point x="530" y="145" type="qcurve" smooth="yes"/>
      <point x="530" y="108"/>
      <point x="548" y="87" type="qcurve" smooth="yes"/>
      <point x="562" y="71"/>
    </contour>
    <contour>
      <point x="593" y="-15" type="qcurve" smooth="yes"/>
      <point x="527" y="-15"/>
      <point x="497" y="19" type="qcurve" smooth="yes"/>
      <point x="452" y="71"/>
      <point x="452" y="145" type="qcurve" smooth="yes"/>
      <point x="452" y="220"/>
      <point x="497" y="271" type="qcurve" smooth="yes"/>
      <point x="527" y="306"/>
      <point x="593" y="306" type="qcurve" smooth="yes"/>
      <point x="659" y="306"/>
      <point x="689" y="271" type="qcurve" smooth="yes"/>
      <point x="734" y="220"/>
      <point x="734" y="145" type="qcurve" smooth="yes"/>
      <point x="734" y="71"/>
      <point x="689" y="19" type="qcurve" smooth="yes"/>
      <point x="659" y="-15"/>
    </contour>
    <contour>
      <point x="147" y="-15" type="line"/>
      <point x="147" y="53" type="line"/>
      <point x="671" y="945" type="line"/>
      <point x="739" y="945" type="line"/>
      <point x="739" y="877" type="line"/>
      <point x="215" y="-15" type="line"/>
    </contour>
  </outline>
</glyph>
<glyph name="ampersand" format="2">
  <advance width="886"/>
  <unicode hex="0026"/>
  <outline>
    <contour>
      <point x="463" y="668" type="qcurve" smooth="yes"/>
      <point x="529" y="720"/>
      <point x="532" y="783" type="qcurve" smooth="yes"/>
      <point x="532" y="787" type="line" smooth="yes"/>
      <point x="532" y="821"/>
      <point x="498" y="854" type="qcurve" smooth="yes"/>
      <point x="478" y="873"/>
      <point x="426" y="875" type="qcurve" smooth="yes"/>
      <point x="421" y="875" type="line" smooth="yes"/>
      <point x="354" y="875"/>
      <point x="328" y="848" type="qcurve" smooth="yes"/>
      <point x="289" y="809"/>
      <point x="289" y="755" type="qcurve" smooth="yes"/>
      <point x="289" y="707"/>
      <point x="322" y="656" type="qcurve" smooth="yes"/>
      <point x="364" y="593"/>
      <point x="364" y="590" type="qcurve"/>
      <point x="415" y="630"/>
    </contour>
    <contour>
      <point x="532" y="137" type="qcurve"/>
      <point x="436" y="281"/>
      <point x="339" y="420" type="qcurve"/>
      <point x="307" y="395"/>
      <point x="285" y="369" type="qcurve"/>
      <point x="250" y="323"/>
      <point x="250" y="273" type="qcurve" smooth="yes"/>
      <point x="251" y="206"/>
      <point x="286" y="167" type="qcurve" smooth="yes"/>
      <point x="346" y="104"/>
      <point x="421" y="104" type="qcurve" smooth="yes"/>
      <point x="499" y="104"/>
    </contour>
    <contour>
      <point x="607" y="227" type="qcurve"/>
      <point x="628" y="265"/>
      <point x="639" y="314" type="qcurve" smooth="yes"/>
      <point x="651" y="363"/>
      <point x="651" y="443" type="qcurve"/>
      <point x="762" y="443" type="line"/>
      <point x="762" y="333"/>
      <point x="739" y="263" type="qcurve" smooth="yes"/>
      <point x="710" y="172"/>
      <point x="675" y="128" type="qcurve"/>
      <point x="714" y="69"/>
      <point x="760" y="0" type="qcurve"/>
      <point x="622" y="0" type="line"/>
      <point x="592" y="47" type="line"/>
      <point x="573" y="31" type="line" smooth="yes"/>
      <point x="520" y="-12"/>
      <point x="421" y="-12" type="qcurve" smooth="yes"/>
      <point x="281" y="-12"/>
      <point x="213" y="60" type="qcurve" smooth="yes"/>
      <point x="124" y="153"/>
      <point x="124" y="260" type="qcurve" smooth="yes"/>
      <point x="124" y="355"/>
      <point x="153" y="401" type="qcurve" smooth="yes"/>
      <point x="189" y="456"/>
      <point x="220" y="478" type="qcurve"/>
      <point x="273" y="524" type="line"/>
      <point x="204" y="623" type="line"/>
      <point x="162" y="699"/>
      <point x="162" y="755" type="qcurve" smooth="yes"/>
      <point x="162" y="866"/>
      <point x="238" y="932" type="qcurve" smooth="yes"/>
      <point x="296" y="983"/>
      <point x="424" y="983" type="qcurve" smooth="yes"/>
      <point x="553" y="983"/>
      <point x="606" y="920" type="qcurve" smooth="yes"/>
      <point x="655" y="861"/>
      <point x="655" y="791" type="qcurve" smooth="yes"/>
      <point x="655" y="785" type="line"/>
      <point x="653" y="679"/>
      <point x="540" y="584" type="qcurve" smooth="yes"/>
      <point x="429" y="494" type="line"/>
      <point x="514" y="366"/>
    </contour>
  </outline>
</glyph>
<glyph name="quotesingle" format="2">
  <advance width="886"/>
  <unicode hex="0027"/>
  <outline>
    <contour>
      <point x="367" y="503" type="line"/>
      <point x="346" y="960" type="line"/>
      <point x="540" y="960" type="line"/>
      <point x="507" y="503" type="line"/>
    </contour>
  </outline>
</glyph>
<glyph name="parenleft" format="2">
  <advance width="886"/>
  <unicode hex="0028"/>
  <outline>
    <contour>
      <point x="536" y="-19" type="line"/>
      <point x="434" y="47"/>
      <point x="362" y="152" type="qcurve" smooth="yes"/>
      <point x="266" y="297"/>
      <point x="266" y="479" type="qcurve" smooth="yes"/>
      <point x="266" y="664"/>
      <point x="362" y="806" type="qcurve" smooth="yes"/>
      <point x="431" y="908"/>
      <point x="536" y="977" type="qcurve"/>
      <point x="620" y="977" type="line"/>
      <point x="620" y="880" type="line"/>
      <point x="524" y="818"/>
      <point x="467" y="722" type="qcurve" smooth="yes"/>
      <point x="391" y="593"/>
      <point x="391" y="485" type="qcurve" smooth="yes"/>
      <point x="391" y="473" type="line" smooth="yes"/>
      <point x="391" y="350"/>
      <point x="467" y="236" type="qcurve" smooth="yes"/>
      <point x="546" y="118"/>
      <point x="620" y="78" type="qcurve"/>
      <point x="620" y="-19" type="line"/>
    </contour>
  </outline>
</glyph>
<glyph name="parenright" format="2">
  <advance width="886"/>
  <unicode hex="0029"/>
  <outline>
    <contour>
      <point x="350" y="-19" type="qcurve"/>
      <point x="266" y="-19" type="line"/>
      <point x="266" y="78" type="line"/>
      <point x="340" y="118"/>
      <point x="419" y="236" type="qcurve" smooth="yes"/>
      <point x="495" y="350"/>
      <point x="495" y="473" type="qcurve" smooth="yes"/>
      <point x="495" y="485" type="line" smooth="yes"/>
      <point x="495" y="593"/>
      <point x="419" y="722" type="qcurve" smooth="yes"/>
      <point x="362" y="818"/>
      <point x="266" y="880" type="qcurve"/>
      <point x="266" y="977" type="line"/>
      <point x="350" y="977" type="line"/>
      <point x="455" y="908"/>
      <point x="524" y="806" type="qcurve" smooth="yes"/>
      <point x="620" y="664"/>
      <point x="620" y="479" type="qcurve" smooth="yes"/>
      <point x="620" y="297"/>
      <point x="524" y="152" type="qcurve" smooth="yes"/>
      <point x="452" y="47"/>
    </contour>
  </outline>
</glyph>
<glyph name="asterisk" format="2">
  <advance width="886"/>
  <unicode hex="002A"/>
  <outline>
    <contour>
      <point x="188" y="277" type="line"/>
      <point x="355" y="467" type="line"/>
      <point x="123" y="542" type="line"/>
      <point x="169" y="667" type="line"/>
      <point x="383" y="583" type="line"/>
      <point x="377" y="830" type="line"/>
      <point x="511" y="830" type="line"/>
      <point x="503" y="583" type="line"/>
      <point x="717" y="667" type="line"/>
      <point x="763" y="542" type="line"/>
      <point x="531" y="467" type="line"/>
      <point x="704" y="277" type="line"/>
      <point x="596" y="193" type="line"/>
      <point x="443" y="388" type="line"/>
      <point x="290" y="193" type="line"/>
    </contour>
  </outline>
</glyph>
<glyph name="plus" format="2">
  <advance width="886"/>
  <unicode hex="002B"/>
  <outline>
    <contour>
      <point x="385" y="563" type="line"/>
      <point x="385" y="851" type="line"/>
      <point x="507" y="851" type="line"/>
      <point x="507" y="563" type="line"/>
      <point x="735" y="563" type="line"/>
      <point x="735" y="441" type="line"/>
      <point x="507" y="441" type="line"/>
      <point x="507" y="156" type="line"/>
      <point x="385" y="156" type="line"/>
      <point x="385" y="441" type="line"/>
      <point x="151" y="441" type="line"/>
      <point x="151" y="563" type="line"/>
    </contour>
  </outline>
</glyph>
<glyph name="comma" format="2">
  <advance width="886"/>
  <unicode hex="002C"/>
  <outline>
    <contour>
      <point x="475" y="248" type="line"/>
      <point x="687" y="248" type="line"/>
      <point x="687" y="126" type="line"/>
      <point x="347" y="-212" type="line"/>
      <point x="199" y="-212" type="line"/>
    </contour>
  </outline>
</glyph>
<glyph name="hyphen" format="2">
  <advance width="886"/>
  <unicode hex="002D"/>
  <outline>
    <contour>
      <point x="147" y="420" type="line"/>
      <point x="147" y="575" type="line"/>
      <point x="739" y="575" type="line"/>
      <point x="739" y="420" type="line"/>
    </contour>
  </outline>
</glyph>
<glyph name="period" format="2">
  <advance width="886"/>
  <unicode hex="002E"/>
  <outline>
    <contour>
      <point x="303" y="0" type="line"/>
      <point x="303" y="226" type="line"/>
      <point x="583" y="226" type="line"/>
      <point x="583" y="0" type="line"/>
    </contour>
  </outline>
</glyph>
<glyph name="slash" format="2">
  <advance width="886"/>
  <unicode hex="002F"/>
  <outline>
    <contour>
      <point x="175" y="-8" type="line"/>
      <point x="577" y="980" type="line"/>
      <point x="711" y="980" type="line"/>
      <point x="307" y="-8" type="line"/>
    </contour>
  </outline>
</glyph>
<glyph name="zero" format="2">
  <advance width="884"/>
  <unicode hex="0030"/>
  <outline>
    <contour>
      <point x="442" y="110" type="qcurve" smooth="yes"/>
      <point x="517" y="110"/>
      <point x="536" y="117" type="qcurve" smooth="yes"/>
      <point x="587" y="136"/>
      <point x="600" y="183" type="qcurve" smooth="yes"/>
      <point x="630" y="285"/>
      <point x="630" y="486" type="qcurve" smooth="yes"/>
      <point x="630" y="670"/>
      <point x="600" y="789" type="qcurve" smooth="yes"/>
      <point x="588" y="838"/>
      <point x="536" y="855" type="qcurve" smooth="yes"/>
      <point x="514" y="862"/>
      <point x="442" y="862" type="qcurve" smooth="yes"/>
      <point x="370" y="862"/>
      <point x="348" y="855" type="qcurve" smooth="yes"/>
      <point x="296" y="838"/>
      <point x="284" y="789" type="qcurve" smooth="yes"/>
      <point x="254" y="677"/>
      <point x="254" y="498" type="qcurve" smooth="yes"/>
      <point x="254" y="486" type="line" smooth="yes"/>
      <point x="254" y="278"/>
      <point x="284" y="183" type="qcurve" smooth="yes"/>
      <point x="302" y="131"/>
      <point x="348" y="117" type="qcurve" smooth="yes"/>
      <point x="372" y="110"/>
    </contour>
    <contour>
      <point x="442" y="-10" type="qcurve" smooth="yes"/>
      <point x="278" y="-10"/>
      <point x="211" y="51" type="qcurve" smooth="yes"/>
      <point x="120" y="142"/>
      <point x="120" y="486" type="qcurve" smooth="yes"/>
      <point x="120" y="817"/>
      <point x="211" y="921" type="qcurve" smooth="yes"/>
      <point x="265" y="982"/>
      <point x="442" y="982" type="qcurve" smooth="yes"/>
      <point x="626" y="982"/>
      <point x="673" y="921" type="qcurve" smooth="yes"/>
      <point x="764" y="802"/>
      <point x="764" y="486" type="qcurve" smooth="yes"/>
      <point x="764" y="140"/>
      <point x="673" y="51" type="qcurve" smooth="yes"/>
      <point x="613" y="-10"/>
    </contour>
  </outline>
</glyph>
<glyph name="one" format="2">
  <advance width="884"/>
  <unicode hex="0031"/>
  <outline>
    <contour>
      <point x="500" y="0" type="line"/>
      <point x="500" y="800" type="line"/>
      <point x="270" y="602" type="line"/>
      <point x="270" y="776" type="line"/>
      <point x="498" y="962" type="line"/>
      <point x="638" y="962" type="line"/>
      <point x="638" y="0" type="line"/>
    </contour>
  </outline>
</glyph>
<glyph name="two" format="2">
  <advance width="884"/>
  <unicode hex="0032"/>
  <outline>
    <contour>
      <point x="140" y="-1" type="line"/>
      <point x="140" y="216"/>
      <point x="173" y="274" type="qcurve"/>
      <point x="224" y="383"/>
      <point x="392" y="491" type="qcurve" smooth="yes"/>
      <point x="525" y="577"/>
      <point x="573" y="647" type="qcurve" smooth="yes"/>
      <point x="591" y="673"/>
      <point x="591" y="710" type="qcurve" smooth="yes"/>
      <point x="591" y="734"/>
      <point x="584" y="762" type="qcurve" smooth="yes"/>
      <point x="573" y="802"/>
      <point x="519" y="834" type="qcurve" smooth="yes"/>
      <point x="483" y="857"/>
      <point x="434" y="857" type="qcurve" smooth="yes"/>
      <point x="318" y="857"/>
      <point x="221" y="800" type="qcurve" smooth="yes"/>
      <point x="155" y="761"/>
      <point x="155" y="760" type="qcurve"/>
      <point x="154" y="807"/>
      <point x="154" y="843" type="qcurve" smooth="yes"/>
      <point x="154" y="880"/>
      <point x="155" y="905" type="qcurve"/>
      <point x="297" y="976"/>
      <point x="434" y="977" type="qcurve" smooth="yes"/>
      <point x="557" y="977"/>
      <point x="638" y="906" type="qcurve" smooth="yes"/>
      <point x="720" y="836"/>
      <point x="720" y="712" type="qcurve" smooth="yes"/>
      <point x="720" y="607"/>
      <point x="651" y="536" type="qcurve" smooth="yes"/>
      <point x="574" y="456"/>
      <point x="483" y="401" type="qcurve" smooth="yes"/>
      <point x="336" y="311"/>
      <point x="308" y="246" type="qcurve" smooth="yes"/>
      <point x="282" y="185"/>
      <point x="281" y="119" type="qcurve"/>
      <point x="705" y="119" type="line"/>
      <point x="705" y="-1" type="line"/>
    </contour>
  </outline>
</glyph>
<glyph name="three" format="2">
  <advance width="884"/>
  <unicode hex="0033"/>
  <outline>
    <contour>
      <point x="464" y="596" type="line"/>
      <point x="517" y="586" type="line" smooth="yes"/>
      <point x="590" y="569"/>
      <point x="635" y="523" type="qcurve" smooth="yes"/>
      <point x="730" y="431"/>
      <point x="730" y="305" type="qcurve" smooth="yes"/>
      <point x="730" y="302" type="line" smooth="yes"/>
      <point x="730" y="174"/>
      <point x="656" y="101" type="qcurve" smooth="yes"/>
      <point x="562" y="7"/>
      <point x="418" y="-7" type="qcurve" smooth="yes"/>
      <point x="396" y="-9"/>
      <point x="374" y="-9" type="qcurve" smooth="yes"/>
      <point x="252" y="-9"/>
      <point x="130" y="52" type="qcurve"/>
      <point x="130" y="184" type="line"/>
      <point x="211" y="142" type="line"/>
      <point x="278" y="114"/>
      <point x="356" y="114" type="qcurve" smooth="yes"/>
      <point x="377" y="114"/>
      <point x="400" y="116" type="qcurve" smooth="yes"/>
      <point x="499" y="127"/>
      <point x="557" y="184" type="qcurve" smooth="yes"/>
      <point x="611" y="235"/>
      <point x="611" y="295" type="qcurve" smooth="yes"/>
      <point x="611" y="301" type="line" smooth="yes"/>
      <point x="611" y="379"/>
      <point x="563" y="428" type="qcurve" smooth="yes"/>
      <point x="511" y="485"/>
      <point x="418" y="485" type="qcurve" smooth="yes"/>
      <point x="287" y="485" type="line"/>
      <point x="287" y="584" type="line"/>
      <point x="547" y="847" type="line"/>
      <point x="130" y="847" type="line"/>
      <point x="130" y="967" type="line"/>
      <point x="697" y="967" type="line"/>
      <point x="697" y="832" type="line"/>
    </contour>
  </outline>
</glyph>
<glyph name="four" format="2">
  <advance width="884"/>
  <unicode hex="0034"/>
  <outline>
    <contour>
      <point x="265" y="331" type="line"/>
      <point x="505" y="331" type="line"/>
      <point x="505" y="526" type="line"/>
      <point x="625" y="526" type="line"/>
      <point x="625" y="331" type="line"/>
      <point x="742" y="331" type="line"/>
      <point x="742" y="211" type="line"/>
      <point x="625" y="211" type="line"/>
      <point x="625" y="-9" type="line"/>
      <point x="505" y="-9" type="line"/>
      <point x="505" y="211" type="line"/>
      <point x="130" y="211" type="line"/>
      <point x="130" y="337" type="line"/>
      <point x="427" y="964" type="line"/>
      <point x="553" y="964" type="line"/>
    </contour>
  </outline>
</glyph>
<glyph name="five" format="2">
  <advance width="782"/>
  <unicode hex="0035"/>
  <outline>
    <contour>
      <point x="154" y="965" type="line"/>
      <point x="633" y="965" type="line"/>
      <point x="633" y="850" type="line"/>
      <point x="273" y="850" type="line"/>
      <point x="262" y="652" type="line"/>
      <point x="274" y="653"/>
      <point x="287" y="653" type="qcurve" smooth="yes"/>
      <point x="328" y="653" type="line" smooth="yes"/>
      <point x="475" y="653"/>
      <point x="662" y="482"/>
      <point x="662" y="345" type="qcurve" smooth="yes"/>
      <point x="662" y="183"/>
      <point x="394" y="-3"/>
      <point x="157" y="-3" type="qcurve" smooth="yes"/>
      <point x="120" y="-3" type="line"/>
      <point x="120" y="116" type="line"/>
      <point x="129" y="115"/>
      <point x="150" y="114"/>
      <point x="171" y="114" type="qcurve" smooth="yes"/>
      <point x="339" y="114"/>
      <point x="525" y="239"/>
      <point x="525" y="353" type="qcurve" smooth="yes"/>
      <point x="525" y="439"/>
      <point x="397" y="539"/>
      <point x="283" y="539" type="qcurve" smooth="yes"/>
      <point x="255" y="539"/>
      <point x="175" y="532"/>
      <point x="123" y="526" type="qcurve"/>
    </contour>
  </outline>
</glyph>
<glyph name="six" format="2">
  <advance width="884"/>
  <unicode hex="0036"/>
  <outline>
    <contour>
      <point x="451" y="496" type="qcurve" smooth="yes"/>
      <point x="367" y="496"/>
      <point x="320" y="449" type="qcurve" smooth="yes"/>
      <point x="259" y="389"/>
      <point x="259" y="305" type="qcurve" smooth="yes"/>
      <point x="259" y="302" type="line" smooth="yes"/>
      <point x="260" y="218"/>
      <point x="320" y="156" type="qcurve" smooth="yes"/>
      <point x="372" y="104"/>
      <point x="451" y="104" type="qcurve" smooth="yes"/>
      <point x="545" y="104"/>
      <point x="603" y="177" type="qcurve" smooth="yes"/>
      <point x="645" y="230"/>
      <point x="645" y="294" type="qcurve" smooth="yes"/>
      <point x="645" y="305" type="line"/>
      <point x="641" y="373"/>
      <point x="599" y="428" type="qcurve" smooth="yes"/>
      <point x="546" y="496"/>
    </contour>
    <contour>
      <point x="367" y="605" type="line"/>
      <point x="406" y="617"/>
      <point x="449" y="617" type="qcurve" smooth="yes"/>
      <point x="471" y="617"/>
      <point x="493" y="614" type="qcurve" smooth="yes"/>
      <point x="624" y="596"/>
      <point x="700" y="505" type="qcurve" smooth="yes"/>
      <point x="768" y="422"/>
      <point x="768" y="305" type="qcurve"/>
      <point x="765" y="166"/>
      <point x="694" y="94" type="qcurve" smooth="yes"/>
      <point x="591" y="-10"/>
      <point x="453" y="-10" type="qcurve" smooth="yes"/>
      <point x="308" y="-10"/>
      <point x="236" y="60" type="qcurve" smooth="yes"/>
      <point x="130" y="156"/>
      <point x="130" y="326" type="qcurve" smooth="yes"/>
      <point x="131" y="446"/>
      <point x="235" y="632" type="qcurve" smooth="yes"/>
      <point x="326" y="789"/>
      <point x="511" y="967" type="qcurve"/>
      <point x="679" y="967" type="line"/>
      <point x="510" y="785" type="line"/>
    </contour>
  </outline>
</glyph>
<glyph name="seven" format="2">
  <advance width="884"/>
  <unicode hex="0037"/>
  <outline>
    <contour>
      <point x="611" y="847" type="qcurve"/>
      <point x="140" y="847" type="line"/>
      <point x="140" y="967" type="line"/>
      <point x="758" y="967" type="line"/>
      <point x="758" y="949"/>
      <point x="755" y="910" type="qcurve" smooth="yes"/>
      <point x="743" y="763"/>
      <point x="596" y="616" type="qcurve" smooth="yes"/>
      <point x="503" y="523"/>
      <point x="440" y="378" type="qcurve" smooth="yes"/>
      <point x="422" y="337"/>
      <point x="404" y="181" type="qcurve"/>
      <point x="398" y="1" type="line"/>
      <point x="275" y="1" type="line"/>
      <point x="279" y="276"/>
      <point x="296" y="334" type="qcurve" smooth="yes"/>
      <point x="350" y="517"/>
      <point x="428" y="604" type="qcurve" smooth="yes"/>
      <point x="589" y="787"/>
      <point x="593" y="799" type="qcurve"/>
      <point x="609" y="840"/>
    </contour>
  </outline>
</glyph>
<glyph name="eight" format="2">
  <advance width="884"/>
  <unicode hex="0038"/>
  <outline>
    <contour>
      <point x="444" y="606" type="qcurve"/>
      <point x="522" y="646"/>
      <point x="546" y="670" type="qcurve" smooth="yes"/>
      <point x="587" y="711"/>
      <point x="588" y="751" type="qcurve" smooth="yes"/>
      <point x="588" y="754" type="line" smooth="yes"/>
      <point x="588" y="799"/>
      <point x="553" y="831" type="qcurve" smooth="yes"/>
      <point x="517" y="862"/>
      <point x="444" y="862" type="qcurve" smooth="yes"/>
      <point x="371" y="862"/>
      <point x="331" y="831" type="qcurve"/>
      <point x="303" y="805"/>
      <point x="303" y="762" type="qcurve" smooth="yes"/>
      <point x="303" y="751" type="line"/>
      <point x="307" y="705"/>
      <point x="347" y="664" type="qcurve" smooth="yes"/>
      <point x="371" y="640"/>
    </contour>
    <contour>
      <point x="444" y="109" type="qcurve" smooth="yes"/>
      <point x="448" y="109" type="line" smooth="yes"/>
      <point x="532" y="109"/>
      <point x="591" y="154" type="qcurve" smooth="yes"/>
      <point x="633" y="187"/>
      <point x="635" y="259" type="qcurve" smooth="yes"/>
      <point x="635" y="262" type="line" smooth="yes"/>
      <point x="635" y="328"/>
      <point x="585" y="384" type="qcurve" smooth="yes"/>
      <point x="539" y="436"/>
      <point x="444" y="472" type="qcurve"/>
      <point x="363" y="441"/>
      <point x="329" y="405" type="qcurve" smooth="yes"/>
      <point x="264" y="339"/>
      <point x="255" y="277" type="qcurve" smooth="yes"/>
      <point x="253" y="266"/>
      <point x="253" y="255" type="qcurve" smooth="yes"/>
      <point x="253" y="204"/>
      <point x="291" y="160" type="qcurve" smooth="yes"/>
      <point x="335" y="111"/>
    </contour>
    <contour>
      <point x="329" y="543" type="line"/>
      <point x="289" y="571" type="line" smooth="yes"/>
      <point x="228" y="610"/>
      <point x="204" y="654" type="qcurve" smooth="yes"/>
      <point x="172" y="711"/>
      <point x="172" y="767" type="qcurve" smooth="yes"/>
      <point x="172" y="795"/>
      <point x="180" y="822" type="qcurve" smooth="yes"/>
      <point x="207" y="918"/>
      <point x="276" y="951" type="qcurve" smooth="yes"/>
      <point x="339" y="982"/>
      <point x="432" y="982" type="qcurve" smooth="yes"/>
      <point x="444" y="982" type="line" smooth="yes"/>
      <point x="605" y="982"/>
      <point x="677" y="889" type="qcurve" smooth="yes"/>
      <point x="716" y="837"/>
      <point x="716" y="773" type="qcurve" smooth="yes"/>
      <point x="716" y="733"/>
      <point x="701" y="688" type="qcurve" smooth="yes"/>
      <point x="679" y="630"/>
      <point x="583" y="562" type="qcurve" smooth="yes"/>
      <point x="558" y="543" type="line"/>
      <point x="589" y="523" type="line"/>
      <point x="648" y="493"/>
      <point x="702" y="427" type="qcurve" smooth="yes"/>
      <point x="762" y="354"/>
      <point x="762" y="258" type="qcurve" smooth="yes"/>
      <point x="762" y="151"/>
      <point x="714" y="96" type="qcurve" smooth="yes"/>
      <point x="623" y="-11"/>
      <point x="444" y="-11" type="qcurve" smooth="yes"/>
      <point x="267" y="-11"/>
      <point x="179" y="78" type="qcurve" smooth="yes"/>
      <point x="120" y="136"/>
      <point x="120" y="259" type="qcurve" smooth="yes"/>
      <point x="120" y="364"/>
      <point x="197" y="442" type="qcurve" smooth="yes"/>
      <point x="259" y="508"/>
      <point x="287" y="516" type="qcurve"/>
    </contour>
  </outline>
</glyph>
<glyph name="nine" format="2">
  <advance width="884"/>
  <unicode hex="0039"/>
  <outline>
    <contour>
      <point x="437" y="470" type="qcurve" smooth="yes"/>
      <point x="521" y="470"/>
      <point x="568" y="517" type="qcurve" smooth="yes"/>
      <point x="629" y="577"/>
      <point x="629" y="661" type="qcurve" smooth="yes"/>
      <point x="629" y="664" type="line" smooth="yes"/>
      <point x="628" y="748"/>
      <point x="568" y="810" type="qcurve" smooth="yes"/>
      <point x="516" y="862"/>
      <point x="437" y="862" type="qcurve" smooth="yes"/>
      <point x="343" y="862"/>
      <point x="285" y="789" type="qcurve" smooth="yes"/>
      <point x="243" y="736"/>
      <point x="243" y="672" type="qcurve" smooth="yes"/>
      <point x="243" y="661" type="line"/>
      <point x="247" y="593"/>
      <point x="289" y="538" type="qcurve" smooth="yes"/>
      <point x="342" y="470"/>
    </contour>
    <contour>
      <point x="521" y="361" type="line"/>
      <point x="482" y="349"/>
      <point x="439" y="349" type="qcurve" smooth="yes"/>
      <point x="417" y="349"/>
      <point x="395" y="352" type="qcurve" smooth="yes"/>
      <point x="264" y="370"/>
      <point x="188" y="461" type="qcurve" smooth="yes"/>
      <point x="120" y="544"/>
      <point x="120" y="661" type="qcurve" smooth="yes"/>
      <point x="123" y="800"/>
      <point x="194" y="872" type="qcurve" smooth="yes"/>
      <point x="297" y="976"/>
      <point x="435" y="976" type="qcurve" smooth="yes"/>
      <point x="580" y="976"/>
      <point x="652" y="906" type="qcurve" smooth="yes"/>
      <point x="758" y="810"/>
      <point x="758" y="640" type="qcurve"/>
      <point x="757" y="520"/>
      <point x="653" y="334" type="qcurve" smooth="yes"/>
      <point x="562" y="177"/>
      <point x="377" y="-1" type="qcurve"/>
      <point x="209" y="-1" type="line"/>
      <point x="378" y="181" type="line"/>
    </contour>
  </outline>
</glyph>
<glyph name="colon" format="2">
  <advance width="886"/>
  <unicode hex="003A"/>
  <outline>
    <contour>
      <point x="319" y="465" type="line"/>
      <point x="319" y="667" type="line"/>
      <point x="567" y="667" type="line"/>
      <point x="567" y="465" type="line"/>
    </contour>
    <contour>
      <point x="319" y="0" type="line"/>
      <point x="319" y="202" type="line"/>
      <point x="567" y="202" type="line"/>
      <point x="567" y="0" type="line"/>
    </contour>
  </outline>
</glyph>
<glyph name="semicolon" format="2">
  <advance width="886"/>
  <unicode hex="003B"/>
  <outline>
    <contour>
      <point x="382" y="458" type="line"/>
      <point x="382" y="660" type="line"/>
      <point x="630" y="660" type="line"/>
      <point x="630" y="458" type="line"/>
    </contour>
    <contour>
      <point x="402" y="202" type="line"/>
      <point x="681" y="202" type="line"/>
      <point x="367" y="-222" type="line"/>
      <point x="205" y="-222" type="line"/>
    </contour>
  </outline>
</glyph>
<glyph name="less" format="2">
  <advance width="886"/>
  <unicode hex="003C"/>
  <outline>
    <contour>
      <point x="309" y="453" type="line"/>
      <point x="759" y="159" type="line"/>
      <point x="759" y="9" type="line"/>
      <point x="127" y="431" type="line"/>
      <point x="127" y="476" type="line"/>
      <point x="759" y="890" type="line"/>
      <point x="759" y="738" type="line"/>
    </contour>
  </outline>
</glyph>
<glyph name="equal" format="2">
  <advance width="886"/>
  <unicode hex="003D"/>
  <outline>
    <contour>
      <point x="151" y="586" type="line"/>
      <point x="151" y="705" type="line"/>
      <point x="735" y="705" type="line"/>
      <point x="735" y="586" type="line"/>
    </contour>
    <contour>
      <point x="151" y="291" type="line"/>
      <point x="151" y="410" type="line"/>
      <point x="735" y="410" type="line"/>
      <point x="735" y="291" type="line"/>
    </contour>
  </outline>
</glyph>
<glyph name="greater" format="2">
  <advance width="886"/>
  <unicode hex="003E"/>
  <outline>
    <contour>
      <point x="577" y="453" type="line"/>
      <point x="127" y="738" type="line"/>
      <point x="127" y="890" type="line"/>
      <point x="759" y="476" type="line"/>
      <point x="759" y="431" type="line"/>
      <point x="127" y="9" type="line"/>
      <point x="127" y="159" type="line"/>
    </contour>
  </outline>
</glyph>
<glyph name="question" format="2">
  <advance width="886"/>
  <unicode hex="003F"/>
  <outline>
    <contour>
      <point x="388" y="324" type="line"/>
      <point x="388" y="384" type="line" smooth="yes"/>
      <point x="388" y="435"/>
      <point x="439" y="483" type="qcurve" smooth="yes"/>
      <point x="511" y="547" type="line" smooth="yes"/>
      <point x="551" y="583"/>
      <point x="565" y="623" type="qcurve"/>
      <point x="576" y="644"/>
      <point x="576" y="678" type="qcurve" smooth="yes"/>
      <point x="576" y="731"/>
      <point x="544" y="767" type="qcurve" smooth="yes"/>
      <point x="518" y="795"/>
      <point x="463" y="795" type="qcurve" smooth="yes"/>
      <point x="456" y="795" type="line" smooth="yes"/>
      <point x="385" y="795"/>
      <point x="350" y="765" type="qcurve" smooth="yes"/>
      <point x="297" y="719"/>
      <point x="297" y="675" type="qcurve" smooth="yes"/>
      <point x="297" y="621" type="line"/>
      <point x="174" y="621" type="line"/>
      <point x="174" y="675" type="line" smooth="yes"/>
      <point x="174" y="781"/>
      <point x="264" y="860" type="qcurve" smooth="yes"/>
      <point x="329" y="917"/>
      <point x="448" y="917" type="qcurve" smooth="yes"/>
      <point x="544" y="917"/>
      <point x="613" y="869" type="qcurve" smooth="yes"/>
      <point x="712" y="800"/>
      <point x="712" y="686" type="qcurve" smooth="yes"/>
      <point x="712" y="578"/>
      <point x="648" y="516" type="qcurve" smooth="yes"/>
      <point x="553" y="426" type="line" smooth="yes"/>
      <point x="521" y="395"/>
      <point x="519" y="366" type="qcurve" smooth="yes"/>
      <point x="516" y="324" type="line"/>
    </contour>
    <contour>
      <point x="361" y="0" type="line"/>
      <point x="361" y="161" type="line"/>
      <point x="541" y="161" type="line"/>
      <point x="541" y="0" type="line"/>
    </contour>
  </outline>
</glyph>
<glyph name="at" format="2">
  <advance width="886"/>
  <unicode hex="0040"/>
  <outline>
    <contour>
      <point x="321" y="99" type="qcurve" smooth="yes"/>
      <point x="328" y="99" type="line" smooth="yes"/>
      <point x="388" y="99"/>
      <point x="407" y="147" type="qcurve" smooth="yes"/>
      <point x="423" y="189"/>
      <point x="425" y="267" type="qcurve" smooth="yes"/>
      <point x="425" y="274" type="line" smooth="yes"/>
      <point x="425" y="355"/>
      <point x="404" y="392" type="qcurve" smooth="yes"/>
      <point x="379" y="435"/>
      <point x="332" y="435" type="qcurve" smooth="yes"/>
      <point x="326" y="435" type="line" smooth="yes"/>
      <point x="285" y="434"/>
      <point x="260" y="384" type="qcurve" smooth="yes"/>
      <point x="240" y="348"/>
      <point x="237" y="269" type="qcurve"/>
      <point x="237" y="252" type="line" smooth="yes"/>
      <point x="237" y="204"/>
      <point x="251" y="167" type="qcurve" smooth="yes"/>
      <point x="276" y="101"/>
    </contour>
    <contour>
      <point x="528" y="524" type="line"/>
      <point x="528" y="151" type="line" smooth="yes"/>
      <point x="528" y="102"/>
      <point x="587" y="102" type="qcurve" smooth="yes"/>
      <point x="641" y="102"/>
      <point x="645" y="153" type="qcurve" smooth="yes"/>
      <point x="658" y="296"/>
      <point x="658" y="396" type="qcurve" smooth="yes"/>
      <point x="658" y="454"/>
      <point x="654" y="498" type="qcurve" smooth="yes"/>
      <point x="632" y="699"/>
      <point x="600" y="744" type="qcurve" smooth="yes"/>
      <point x="550" y="816"/>
      <point x="434" y="816" type="qcurve" smooth="yes"/>
      <point x="336" y="816"/>
      <point x="296" y="786" type="qcurve" smooth="yes"/>
      <point x="251" y="753"/>
      <point x="246" y="699" type="qcurve" smooth="yes"/>
      <point x="242" y="656" type="line"/>
      <point x="134" y="656" type="line"/>
      <point x="134" y="696"/>
      <point x="144" y="737" type="qcurve" smooth="yes"/>
      <point x="163" y="814"/>
      <point x="234" y="864" type="qcurve" smooth="yes"/>
      <point x="303" y="911"/>
      <point x="434" y="911" type="qcurve" smooth="yes"/>
      <point x="605" y="911"/>
      <point x="672" y="801" type="qcurve" smooth="yes"/>
      <point x="733" y="700"/>
      <point x="746" y="503" type="qcurve" smooth="yes"/>
      <point x="750" y="436"/>
      <point x="750" y="372" type="qcurve" smooth="yes"/>
      <point x="750" y="255"/>
      <point x="736" y="147" type="qcurve" smooth="yes"/>
      <point x="717" y="0"/>
      <point x="587" y="0" type="qcurve" smooth="yes"/>
      <point x="530" y="0"/>
      <point x="492" y="32" type="qcurve" smooth="yes"/>
      <point x="468" y="53"/>
      <point x="455" y="72" type="qcurve"/>
      <point x="429" y="41"/>
      <point x="407" y="29" type="qcurve" smooth="yes"/>
      <point x="353" y="0"/>
      <point x="324" y="0" type="qcurve" smooth="yes"/>
      <point x="320" y="0" type="line"/>
      <point x="241" y="6"/>
      <point x="204" y="42" type="qcurve" smooth="yes"/>
      <point x="140" y="105"/>
      <point x="140" y="269" type="qcurve" smooth="yes"/>
      <point x="140" y="433"/>
      <point x="213" y="494" type="qcurve" smooth="yes"/>
      <point x="258" y="531"/>
      <point x="335" y="531" type="qcurve" smooth="yes"/>
      <point x="407" y="531"/>
      <point x="441" y="482" type="qcurve"/>
      <point x="441" y="524" type="line"/>
    </contour>
  </outline>
</glyph>
<glyph name="A" format="2">
  <advance width="886"/>
  <unicode hex="0041"/>
  <outline>
    <contour>
      <point x="337" y="373" type="line"/>
      <point x="555" y="373" type="line"/>
      <point x="447" y="772" type="line"/>
    </contour>
    <contour>
      <point x="120" y="0" type="line"/>
      <point x="369" y="901" type="line"/>
      <point x="537" y="901" type="line"/>
      <point x="766" y="0" type="line"/>
      <point x="640" y="0" type="line"/>
      <point x="574" y="252" type="line"/>
      <point x="307" y="252" type="line"/>
      <point x="235" y="0" type="line"/>
    </contour>
  </outline>
</glyph>
<glyph name="B" format="2">
  <advance width="886"/>
  <unicode hex="0042"/>
  <outline>
    <contour>
      <point x="253" y="518" type="line"/>
      <point x="449" y="518" type="line" smooth="yes"/>
      <point x="518" y="518"/>
      <point x="571" y="549" type="qcurve" smooth="yes"/>
      <point x="617" y="577"/>
      <point x="617" y="639" type="qcurve" smooth="yes"/>
      <point x="617" y="644" type="line" smooth="yes"/>
      <point x="617" y="696"/>
      <point x="561" y="730" type="qcurve" smooth="yes"/>
      <point x="513" y="760"/>
      <point x="449" y="760" type="qcurve" smooth="yes"/>
      <point x="253" y="760" type="line"/>
    </contour>
    <contour>
      <point x="253" y="116" type="line"/>
      <point x="449" y="116" type="line" smooth="yes"/>
      <point x="523" y="116"/>
      <point x="571" y="146" type="qcurve" smooth="yes"/>
      <point x="629" y="180"/>
      <point x="629" y="248" type="qcurve" smooth="yes"/>
      <point x="629" y="316"/>
      <point x="579" y="358" type="qcurve" smooth="yes"/>
      <point x="531" y="402"/>
      <point x="449" y="402" type="qcurve" smooth="yes"/>
      <point x="253" y="402" type="line"/>
    </contour>
    <contour>
      <point x="129" y="0" type="line"/>
      <point x="129" y="876" type="line"/>
      <point x="449" y="876" type="line" smooth="yes"/>
      <point x="596" y="876"/>
      <point x="675" y="806" type="qcurve" smooth="yes"/>
      <point x="743" y="746"/>
      <point x="743" y="652" type="qcurve" smooth="yes"/>
      <point x="743" y="560"/>
      <point x="707" y="518" type="qcurve" smooth="yes"/>
      <point x="686" y="492"/>
      <point x="657" y="471" type="qcurve"/>
      <point x="633" y="456" type="line"/>
      <point x="655" y="446" type="line"/>
      <point x="693" y="423"/>
      <point x="717" y="392" type="qcurve"/>
      <point x="757" y="346"/>
      <point x="757" y="256" type="qcurve"/>
      <point x="755" y="138"/>
      <point x="686" y="81" type="qcurve" smooth="yes"/>
      <point x="589" y="0"/>
      <point x="449" y="0" type="qcurve" smooth="yes"/>
    </contour>
  </outline>
</glyph>
<glyph name="C" format="2">
  <advance width="886"/>
  <unicode hex="0043"/>
  <outline>
    <contour>
      <point x="579" y="204" type="line"/>
      <point x="701" y="204" type="line"/>
      <point x="701" y="114"/>
      <point x="641" y="56" type="qcurve" smooth="yes"/>
      <point x="581" y="-1"/>
      <point x="482" y="-7" type="qcurve"/>
      <point x="467" y="-7" type="line" smooth="yes"/>
      <point x="391" y="-7"/>
      <point x="329" y="38" type="qcurve" smooth="yes"/>
      <point x="259" y="90"/>
      <point x="225" y="185" type="qcurve" smooth="yes"/>
      <point x="185" y="299"/>
      <point x="185" y="447" type="qcurve" smooth="yes"/>
      <point x="185" y="596"/>
      <point x="224" y="708" type="qcurve" smooth="yes"/>
      <point x="255" y="797"/>
      <point x="326" y="849" type="qcurve" smooth="yes"/>
      <point x="395" y="900"/>
      <point x="482" y="900" type="qcurve" smooth="yes"/>
      <point x="578" y="900"/>
      <point x="620" y="858" type="qcurve" smooth="yes"/>
      <point x="699" y="779"/>
      <point x="699" y="698" type="qcurve"/>
      <point x="585" y="698" type="line"/>
      <point x="583" y="719" type="line"/>
      <point x="578" y="737"/>
      <point x="557" y="761" type="qcurve" smooth="yes"/>
      <point x="537" y="785"/>
      <point x="475" y="785" type="qcurve" smooth="yes"/>
      <point x="401" y="785"/>
      <point x="356" y="713" type="qcurve" smooth="yes"/>
      <point x="311" y="637"/>
      <point x="311" y="468" type="qcurve" smooth="yes"/>
      <point x="311" y="447" type="line" smooth="yes"/>
      <point x="315" y="260"/>
      <point x="365" y="182" type="qcurve" smooth="yes"/>
      <point x="411" y="108"/>
      <point x="475" y="108" type="qcurve" smooth="yes"/>
      <point x="529" y="108"/>
      <point x="559" y="141" type="qcurve" smooth="yes"/>
      <point x="572" y="156"/>
      <point x="577" y="186" type="qcurve"/>
    </contour>
  </outline>
</glyph>
<glyph name="D" format="2">
  <advance width="886"/>
  <unicode hex="0044"/>
  <outline>
    <contour>
      <point x="305" y="115" type="line"/>
      <point x="312" y="115" type="line" smooth="yes"/>
      <point x="397" y="115"/>
      <point x="437" y="139" type="qcurve" smooth="yes"/>
      <point x="511" y="184"/>
      <point x="551" y="267" type="qcurve" smooth="yes"/>
      <point x="581" y="327"/>
      <point x="581" y="427" type="qcurve" smooth="yes"/>
      <point x="581" y="516"/>
      <point x="530" y="610" type="qcurve" smooth="yes"/>
      <point x="497" y="672"/>
      <point x="419" y="729" type="qcurve" smooth="yes"/>
      <point x="389" y="751"/>
      <point x="326" y="760" type="qcurve" smooth="yes"/>
      <point x="305" y="762" type="line"/>
    </contour>
    <contour>
      <point x="179" y="0" type="line"/>
      <point x="179" y="877" type="line"/>
      <point x="299" y="877" type="line" smooth="yes"/>
      <point x="458" y="877"/>
      <point x="577" y="753" type="qcurve" smooth="yes"/>
      <point x="707" y="613"/>
      <point x="707" y="427" type="qcurve" smooth="yes"/>
      <point x="707" y="240"/>
      <point x="569" y="94" type="qcurve" smooth="yes"/>
      <point x="479" y="0"/>
      <point x="299" y="0" type="qcurve" smooth="yes"/>
    </contour>
  </outline>
</glyph>
<glyph name="E" format="2">
  <advance width="886"/>
  <unicode hex="0045"/>
  <outline>
    <contour>
      <point x="181" y="-1" type="line"/>
      <point x="181" y="882" type="line"/>
      <point x="705" y="882" type="line"/>
      <point x="705" y="762" type="line"/>
      <point x="303" y="762" type="line"/>
      <point x="303" y="521" type="line"/>
      <point x="653" y="521" type="line"/>
      <point x="653" y="401" type="line"/>
      <point x="303" y="401" type="line"/>
      <point x="303" y="119" type="line"/>
      <point x="705" y="119" type="line"/>
      <point x="705" y="-1" type="line"/>
    </contour>
  </outline>
</glyph>
<glyph name="F" format="2">
  <advance width="886"/>
  <unicode hex="0046"/>
  <outline>
    <contour>
      <point x="213" y="-1" type="line"/>
      <point x="213" y="882" type="line"/>
      <point x="673" y="882" type="line"/>
      <point x="673" y="762" type="line"/>
      <point x="337" y="762" type="line"/>
      <point x="337" y="521" type="line"/>
      <point x="620" y="521" type="line"/>
      <point x="620" y="401" type="line"/>
      <point x="337" y="401" type="line"/>
      <point x="337" y="-1" type="line"/>
    </contour>
  </outline>
</glyph>
<glyph name="G" format="2">
  <advance width="886"/>
  <unicode hex="0047"/>
  <outline>
    <contour>
      <point x="646" y="365" type="line"/>
      <point x="460" y="365" type="line"/>
      <point x="460" y="485" type="line"/>
      <point x="766" y="485" type="line"/>
      <point x="766" y="50" type="line"/>
      <point x="676" y="-8"/>
      <point x="526" y="-8" type="qcurve" smooth="yes"/>
      <point x="388" y="-8"/>
      <point x="317" y="53" type="qcurve" smooth="yes"/>
      <point x="218" y="139"/>
      <point x="181" y="292" type="qcurve" smooth="yes"/>
      <point x="161" y="372"/>
      <point x="161" y="449" type="qcurve" smooth="yes"/>
      <point x="161" y="527"/>
      <point x="181" y="602" type="qcurve" smooth="yes"/>
      <point x="224" y="767"/>
      <point x="311" y="836" type="qcurve" smooth="yes"/>
      <point x="409" y="911"/>
      <point x="521" y="911" type="qcurve" smooth="yes"/>
      <point x="641" y="911"/>
      <point x="701" y="853" type="qcurve" smooth="yes"/>
      <point x="766" y="787"/>
      <point x="766" y="733" type="qcurve"/>
      <point x="649" y="733" type="line"/>
      <point x="646" y="743" type="line"/>
      <point x="610" y="800"/>
      <point x="515" y="800" type="qcurve" smooth="yes"/>
      <point x="385" y="800"/>
      <point x="320" y="595" type="qcurve" smooth="yes"/>
      <point x="296" y="519"/>
      <point x="296" y="442" type="qcurve" smooth="yes"/>
      <point x="296" y="365"/>
      <point x="320" y="287" type="qcurve" smooth="yes"/>
      <point x="376" y="106"/>
      <point x="515" y="106" type="qcurve" smooth="yes"/>
      <point x="610" y="106"/>
      <point x="646" y="130" type="qcurve"/>
    </contour>
  </outline>
</glyph>
<glyph name="H" format="2">
  <advance width="886"/>
  <unicode hex="0048"/>
  <outline>
    <contour>
      <point x="164" y="0" type="line"/>
      <point x="164" y="890" type="line"/>
      <point x="287" y="890" type="line"/>
      <point x="287" y="518" type="line"/>
      <point x="599" y="518" type="line"/>
      <point x="599" y="890" type="line"/>
      <point x="722" y="890" type="line"/>
      <point x="722" y="0" type="line"/>
      <point x="599" y="0" type="line"/>
      <point x="599" y="398" type="line"/>
      <point x="287" y="398" type="line"/>
      <point x="287" y="0" type="line"/>
    </contour>
  </outline>
</glyph>
<glyph name="I" format="2">
  <advance width="886"/>
  <unicode hex="0049"/>
  <outline>
    <contour>
      <point x="225" y="-1" type="line"/>
      <point x="225" y="119" type="line"/>
      <point x="381" y="119" type="line"/>
      <point x="381" y="762" type="line"/>
      <point x="241" y="762" type="line"/>
      <point x="241" y="881" type="line"/>
      <point x="645" y="881" type="line"/>
      <point x="645" y="762" type="line"/>
      <point x="505" y="762" type="line"/>
      <point x="505" y="119" type="line"/>
      <point x="661" y="119" type="line"/>
      <point x="661" y="-1" type="line"/>
    </contour>
  </outline>
</glyph>
<glyph name="J" format="2">
  <advance width="886"/>
  <unicode hex="004A"/>
  <outline>
    <contour>
      <point x="668" y="891" type="line"/>
      <point x="668" y="224" type="line"/>
      <point x="665" y="107"/>
      <point x="551" y="-7"/>
      <point x="437" y="-9" type="qcurve" smooth="yes"/>
      <point x="433" y="-9" type="line" smooth="yes"/>
      <point x="326" y="-9"/>
      <point x="272" y="47" type="qcurve" smooth="yes"/>
      <point x="218" y="102"/>
      <point x="218" y="224" type="qcurve" smooth="yes"/>
      <point x="218" y="276" type="line"/>
      <point x="341" y="276" type="line"/>
      <point x="341" y="224" type="line" smooth="yes"/>
      <point x="343" y="108"/>
      <point x="437" y="107" type="qcurve" smooth="yes"/>
      <point x="441" y="107" type="line" smooth="yes"/>
      <point x="545" y="107"/>
      <point x="545" y="224" type="qcurve" smooth="yes"/>
      <point x="545" y="891" type="line"/>
    </contour>
  </outline>
</glyph>
<glyph name="K" format="2">
  <advance width="886"/>
  <unicode hex="004B"/>
  <outline>
    <contour>
      <point x="99" y="885" type="line"/>
      <point x="225" y="885" type="line"/>
      <point x="225" y="517" type="line"/>
      <point x="583" y="885" type="line"/>
      <point x="753" y="885" type="line"/>
      <point x="329" y="466" type="line"/>
      <point x="783" y="0" type="line"/>
      <point x="606" y="0" type="line"/>
      <point x="225" y="407" type="line"/>
      <point x="225" y="0" type="line"/>
      <point x="99" y="0" type="line"/>
    </contour>
  </outline>
</glyph>
<glyph name="L" format="2">
  <advance width="886"/>
  <unicode hex="004C"/>
  <outline>
    <contour>
      <point x="158" y="2" type="line"/>
      <point x="158" y="885" type="line"/>
      <point x="281" y="885" type="line"/>
      <point x="281" y="122" type="line"/>
      <point x="728" y="122" type="line"/>
      <point x="728" y="2" type="line"/>
    </contour>
  </outline>
</glyph>
<glyph name="M" format="2">
  <advance width="886"/>
  <unicode hex="004D"/>
  <outline>
    <contour>
      <point x="127" y="0" type="line"/>
      <point x="127" y="894" type="line"/>
      <point x="332" y="894" type="line"/>
      <point x="443" y="522" type="line"/>
      <point x="553" y="894" type="line"/>
      <point x="759" y="894" type="line"/>
      <point x="759" y="0" type="line"/>
      <point x="637" y="0" type="line"/>
      <point x="637" y="737" type="line"/>
      <point x="493" y="291" type="line"/>
      <point x="393" y="291" type="line"/>
      <point x="249" y="737" type="line"/>
      <point x="249" y="0" type="line"/>
    </contour>
  </outline>
</glyph>
<glyph name="O" format="2">
  <advance width="886"/>
  <unicode hex="004F"/>
  <outline>
    <contour>
      <point x="443" y="108" type="qcurve" smooth="yes"/>
      <point x="527" y="108"/>
      <point x="571" y="191" type="qcurve" smooth="yes"/>
      <point x="625" y="293"/>
      <point x="625" y="452" type="qcurve" smooth="yes"/>
      <point x="625" y="608"/>
      <point x="571" y="710" type="qcurve" smooth="yes"/>
      <point x="527" y="792"/>
      <point x="443" y="792" type="qcurve" smooth="yes"/>
      <point x="361" y="792"/>
      <point x="315" y="710" type="qcurve" smooth="yes"/>
      <point x="259" y="605"/>
      <point x="259" y="452" type="qcurve" smooth="yes"/>
      <point x="259" y="298"/>
      <point x="315" y="191" type="qcurve" smooth="yes"/>
      <point x="361" y="108"/>
    </contour>
    <contour>
      <point x="443" y="-8" type="qcurve" smooth="yes"/>
      <point x="302" y="-8"/>
      <point x="205" y="134" type="qcurve" smooth="yes"/>
      <point x="127" y="248"/>
      <point x="127" y="452" type="qcurve" smooth="yes"/>
      <point x="127" y="656"/>
      <point x="205" y="770" type="qcurve" smooth="yes"/>
      <point x="302" y="912"/>
      <point x="443" y="912" type="qcurve" smooth="yes"/>
      <point x="584" y="912"/>
      <point x="681" y="770" type="qcurve" smooth="yes"/>
      <point x="759" y="656"/>
      <point x="759" y="452" type="qcurve" smooth="yes"/>
      <point x="759" y="248"/>
      <point x="681" y="134" type="qcurve" smooth="yes"/>
      <point x="584" y="-8"/>
    </contour>
  </outline>
</glyph>
<glyph name="P" format="2">
  <advance width="886"/>
  <unicode hex="0050"/>
  <outline>
    <contour>
      <point x="269" y="496" type="line"/>
      <point x="446" y="496" type="line" smooth="yes"/>
      <point x="524" y="496"/>
      <point x="560" y="526" type="qcurve" smooth="yes"/>
      <point x="608" y="567"/>
      <point x="608" y="633" type="qcurve" smooth="yes"/>
      <point x="608" y="699"/>
      <point x="560" y="739" type="qcurve" smooth="yes"/>
      <point x="524" y="769"/>
      <point x="446" y="769" type="qcurve" smooth="yes"/>
      <point x="269" y="769" type="line"/>
    </contour>
    <contour>
      <point x="146" y="0" type="line"/>
      <point x="146" y="889" type="line"/>
      <point x="449" y="889" type="line" smooth="yes"/>
      <point x="585" y="889"/>
      <point x="653" y="831" type="qcurve" smooth="yes"/>
      <point x="740" y="753"/>
      <point x="740" y="633" type="qcurve" smooth="yes"/>
      <point x="740" y="513"/>
      <point x="653" y="435" type="qcurve" smooth="yes"/>
      <point x="585" y="376"/>
      <point x="449" y="376" type="qcurve" smooth="yes"/>
      <point x="269" y="376" type="line"/>
      <point x="269" y="0" type="line"/>
    </contour>
  </outline>
</glyph>
<glyph name="Q" format="2">
  <advance width="886"/>
  <unicode hex="0051"/>
  <outline>
    <contour>
      <point x="455" y="423" type="line"/>
      <point x="554" y="294" type="line"/>
      <point x="567" y="314"/>
      <point x="578" y="352" type="qcurve" smooth="yes"/>
      <point x="590" y="398"/>
      <point x="590" y="470" type="qcurve" smooth="yes"/>
      <point x="590" y="615"/>
      <point x="536" y="716" type="qcurve" smooth="yes"/>
      <point x="501" y="780"/>
      <point x="410" y="780" type="qcurve" smooth="yes"/>
      <point x="320" y="780"/>
      <point x="281" y="716" type="qcurve" smooth="yes"/>
      <point x="227" y="622"/>
      <point x="227" y="470" type="qcurve" smooth="yes"/>
      <point x="227" y="314"/>
      <point x="281" y="230" type="qcurve" smooth="yes"/>
      <point x="328" y="159"/>
      <point x="408" y="159" type="qcurve" smooth="yes"/>
      <point x="410" y="159" type="line" smooth="yes"/>
      <point x="461" y="160"/>
      <point x="485" y="188" type="qcurve"/>
      <point x="308" y="423" type="line"/>
    </contour>
    <contour>
      <point x="560" y="92" type="line"/>
      <point x="533" y="70" type="line"/>
      <point x="491" y="40"/>
      <point x="410" y="40" type="qcurve" smooth="yes"/>
      <point x="271" y="40"/>
      <point x="206" y="122" type="qcurve" smooth="yes"/>
      <point x="101" y="256"/>
      <point x="101" y="470" type="qcurve" smooth="yes"/>
      <point x="101" y="672"/>
      <point x="206" y="818" type="qcurve" smooth="yes"/>
      <point x="263" y="898"/>
      <point x="409" y="898" type="qcurve" smooth="yes"/>
      <point x="558" y="898"/>
      <point x="614" y="818" type="qcurve" smooth="yes"/>
      <point x="719" y="666"/>
      <point x="719" y="470" type="qcurve" smooth="yes"/>
      <point x="719" y="348"/>
      <point x="665" y="228" type="qcurve"/>
      <point x="638" y="182" type="line"/>
      <point x="785" y="-10" type="line"/>
      <point x="632" y="-10" type="line"/>
    </contour>
  </outline>
</glyph>
<glyph name="R" format="2">
  <advance width="886"/>
  <unicode hex="0052"/>
  <outline>
    <contour>
      <point x="275" y="496" type="line"/>
      <point x="407" y="496" type="line" smooth="yes"/>
      <point x="487" y="496"/>
      <point x="521" y="526" type="qcurve" smooth="yes"/>
      <point x="569" y="567"/>
      <point x="569" y="633" type="qcurve" smooth="yes"/>
      <point x="569" y="699"/>
      <point x="521" y="739" type="qcurve" smooth="yes"/>
      <point x="487" y="769"/>
      <point x="407" y="769" type="qcurve" smooth="yes"/>
      <point x="275" y="769" type="line"/>
    </contour>
    <contour>
      <point x="152" y="0" type="line"/>
      <point x="152" y="889" type="line"/>
      <point x="410" y="889" type="line" smooth="yes"/>
      <point x="548" y="889"/>
      <point x="614" y="831" type="qcurve" smooth="yes"/>
      <point x="703" y="753"/>
      <point x="704" y="633" type="qcurve" smooth="yes"/>
      <point x="704" y="508"/>
      <point x="614" y="435" type="qcurve" smooth="yes"/>
      <point x="575" y="402"/>
      <point x="518" y="388" type="qcurve"/>
      <point x="626" y="192"/>
      <point x="734" y="0" type="qcurve"/>
      <point x="599" y="0" type="line"/>
      <point x="497" y="189"/>
      <point x="395" y="376" type="qcurve"/>
      <point x="275" y="376" type="line"/>
      <point x="275" y="0" type="line"/>
    </contour>
  </outline>
</glyph>
<glyph name="S" format="2">
  <advance width="886"/>
  <unicode hex="0053"/>
  <outline>
    <contour>
      <point x="580" y="680" type="line"/>
      <point x="577" y="733"/>
      <point x="507" y="794"/>
      <point x="448" y="794" type="qcurve" smooth="yes"/>
      <point x="389" y="794"/>
      <point x="313" y="728"/>
      <point x="313" y="680" type="qcurve" smooth="yes"/>
      <point x="313" y="638"/>
      <point x="378" y="572"/>
      <point x="466" y="529" type="qcurve" smooth="yes"/>
      <point x="517" y="505" type="line" smooth="yes"/>
      <point x="631" y="449"/>
      <point x="724" y="328"/>
      <point x="724" y="242" type="qcurve" smooth="yes"/>
      <point x="724" y="131"/>
      <point x="565" y="0"/>
      <point x="431" y="0" type="qcurve" smooth="yes"/>
      <point x="308" y="0"/>
      <point x="173" y="130"/>
      <point x="169" y="255" type="qcurve"/>
      <point x="305" y="255" type="line"/>
      <point x="305" y="250" type="line" smooth="yes"/>
      <point x="305" y="185"/>
      <point x="373" y="113"/>
      <point x="433" y="113" type="qcurve" smooth="yes"/>
      <point x="501" y="113"/>
      <point x="588" y="187"/>
      <point x="588" y="244" type="qcurve" smooth="yes"/>
      <point x="588" y="292"/>
      <point x="528" y="358"/>
      <point x="411" y="414" type="qcurve" smooth="yes"/>
      <point x="349" y="445" type="line" smooth="yes"/>
      <point x="263" y="485"/>
      <point x="178" y="601"/>
      <point x="178" y="677" type="qcurve" smooth="yes"/>
      <point x="178" y="780"/>
      <point x="332" y="907"/>
      <point x="457" y="907" type="qcurve" smooth="yes"/>
      <point x="570" y="907"/>
      <point x="707" y="786"/>
      <point x="715" y="680" type="qcurve"/>
    </contour>
  </outline>
</glyph>
<glyph name="T" format="2">
  <advance width="886"/>
  <unicode hex="0054"/>
  <outline>
    <contour>
      <point x="377" y="0" type="line"/>
      <point x="377" y="766" type="line"/>
      <point x="149" y="766" type="line"/>
      <point x="149" y="886" type="line"/>
      <point x="737" y="886" type="line"/>
      <point x="737" y="766" type="line"/>
      <point x="500" y="766" type="line"/>
      <point x="500" y="0" type="line"/>
    </contour>
  </outline>
</glyph>
<glyph name="U" format="2">
  <advance width="886"/>
  <unicode hex="0055"/>
  <outline>
    <contour>
      <point x="151" y="896" type="line"/>
      <point x="273" y="896" type="line"/>
      <point x="273" y="292" type="line" smooth="yes"/>
      <point x="273" y="195"/>
      <point x="320" y="146" type="qcurve" smooth="yes"/>
      <point x="351" y="112"/>
      <point x="443" y="112" type="qcurve" smooth="yes"/>
      <point x="535" y="112"/>
      <point x="566" y="146" type="qcurve" smooth="yes"/>
      <point x="613" y="195"/>
      <point x="613" y="292" type="qcurve" smooth="yes"/>
      <point x="613" y="896" type="line"/>
      <point x="735" y="896" type="line"/>
      <point x="735" y="292" type="line" smooth="yes"/>
      <point x="735" y="138"/>
      <point x="665" y="66" type="qcurve" smooth="yes"/>
      <point x="593" y="-8"/>
      <point x="443" y="-8" type="qcurve" smooth="yes"/>
      <point x="293" y="-8"/>
      <point x="221" y="66" type="qcurve" smooth="yes"/>
      <point x="151" y="138"/>
      <point x="151" y="292" type="qcurve" smooth="yes"/>
    </contour>
  </outline>
</glyph>
<glyph name="V" format="2">
  <advance width="886"/>
  <unicode hex="0056"/>
  <outline>
    <contour>
      <point x="121" y="887" type="line"/>
      <point x="245" y="887" type="line"/>
      <point x="440" y="144" type="line"/>
      <point x="641" y="887" type="line"/>
      <point x="765" y="887" type="line"/>
      <point x="518" y="0" type="line"/>
      <point x="353" y="0" type="line"/>
    </contour>
  </outline>
</glyph>
<glyph name="W" format="2">
  <advance width="886"/>
  <unicode hex="0057"/>
  <outline>
    <contour>
      <point x="442" y="304" type="line"/>
      <point x="349" y="0" type="line"/>
      <point x="220" y="0" type="line"/>
      <point x="178" y="156"/>
      <point x="147" y="434" type="qcurve" smooth="yes"/>
      <point x="123" y="684"/>
      <point x="123" y="890" type="qcurve"/>
      <point x="250" y="890" type="line"/>
      <point x="253" y="738"/>
      <point x="270" y="514" type="qcurve" smooth="yes"/>
      <point x="282" y="344"/>
      <point x="303" y="226" type="qcurve"/>
      <point x="393" y="546" type="line"/>
      <point x="492" y="546" type="line"/>
      <point x="586" y="226" type="line"/>
      <point x="606" y="343"/>
      <point x="619" y="514" type="qcurve" smooth="yes"/>
      <point x="637" y="745"/>
      <point x="639" y="890" type="qcurve"/>
      <point x="763" y="890" type="line"/>
      <point x="763" y="663"/>
      <point x="739" y="434" type="qcurve" smooth="yes"/>
      <point x="710" y="159"/>
      <point x="666" y="0" type="qcurve"/>
      <point x="537" y="0" type="line"/>
    </contour>
  </outline>
</glyph>
<glyph name="X" format="2">
  <advance width="886"/>
  <unicode hex="0058"/>
  <outline>
    <contour>
      <point x="379" y="456" type="line"/>
      <point x="137" y="898" type="line"/>
      <point x="275" y="898" type="line"/>
      <point x="447" y="572" type="line"/>
      <point x="626" y="898" type="line"/>
      <point x="761" y="898" type="line"/>
      <point x="515" y="461" type="line"/>
      <point x="761" y="0" type="line"/>
      <point x="625" y="0" type="line"/>
      <point x="445" y="346" type="line"/>
      <point x="260" y="0" type="line"/>
      <point x="125" y="0" type="line"/>
    </contour>
  </outline>
</glyph>
<glyph name="Y" format="2">
  <advance width="886"/>
  <unicode hex="0059"/>
  <outline>
    <contour>
      <point x="381" y="413" type="line"/>
      <point x="127" y="892" type="line"/>
      <point x="267" y="892" type="line"/>
      <point x="445" y="547" type="line"/>
      <point x="632" y="892" type="line"/>
      <point x="759" y="892" type="line"/>
      <point x="505" y="416" type="line"/>
      <point x="505" y="-1" type="line"/>
      <point x="381" y="-1" type="line"/>
    </contour>
  </outline>
</glyph>
<glyph name="Z" format="2">
  <advance width="886"/>
  <unicode hex="005A"/>
  <outline>
    <contour>
      <point x="197" y="881" type="line"/>
      <point x="675" y="881" type="line"/>
      <point x="675" y="768" type="line"/>
      <point x="329" y="119" type="line"/>
      <point x="704" y="119" type="line"/>
      <point x="704" y="-1" type="line"/>
      <point x="182" y="-1" type="line"/>
      <point x="182" y="112" type="line"/>
      <point x="529" y="761" type="line"/>
      <point x="197" y="761" type="line"/>
    </contour>
  </outline>
</glyph>
<glyph name="bracketleft" format="2">
  <advance width="886"/>
  <unicode hex="005B"/>
  <outline>
    <contour>
      <point x="212" y="-15" type="line"/>
      <point x="212" y="975" type="line"/>
      <point x="674" y="975" type="line"/>
      <point x="674" y="861" type="line"/>
      <point x="337" y="861" type="line"/>
      <point x="337" y="99" type="line"/>
      <point x="674" y="99" type="line"/>
      <point x="674" y="-15" type="line"/>
    </contour>
  </outline>
</glyph>
<glyph name="backslash" format="2">
  <advance width="886"/>
  <unicode hex="005C"/>
  <outline>
    <contour>
      <point x="711" y="-8" type="line"/>
      <point x="579" y="-8" type="line"/>
      <point x="175" y="980" type="line"/>
      <point x="309" y="980" type="line"/>
    </contour>
  </outline>
</glyph>
<glyph name="bracketright" format="2">
  <advance width="886"/>
  <unicode hex="005D"/>
  <outline>
    <contour>
      <point x="212" y="-15" type="line"/>
      <point x="212" y="99" type="line"/>
      <point x="549" y="99" type="line"/>
      <point x="549" y="861" type="line"/>
      <point x="212" y="861" type="line"/>
      <point x="212" y="975" type="line"/>
      <point x="674" y="975" type="line"/>
      <point x="674" y="-15" type="line"/>
    </contour>
  </outline>
</glyph>
<glyph name="asciicircum" format="2">
  <advance width="886"/>
  <unicode hex="005E"/>
  <outline>
    <contour>
      <point x="123" y="516" type="line"/>
      <point x="409" y="947" type="line"/>
      <point x="481" y="947" type="line"/>
      <point x="763" y="516" type="line"/>
      <point x="684" y="444" type="line"/>
      <point x="445" y="708" type="line"/>
      <point x="202" y="444" type="line"/>
    </contour>
  </outline>
</glyph>
<glyph name="underscore" format="2">
  <advance width="886"/>
  <unicode hex="005F"/>
  <outline>
    <contour>
      <point x="151" y="-73" type="line"/>
      <point x="735" y="-73" type="line"/>
      <point x="735" y="-217" type="line"/>
      <point x="151" y="-217" type="line"/>
    </contour>
  </outline>
</glyph>
<glyph name="grave" format="2">
  <advance width="886"/>
  <unicode hex="0060"/>
  <outline>
    <contour>
      <point x="309" y="989" type="line"/>
      <point x="463" y="989" type="line"/>
      <point x="577" y="755" type="line"/>
      <point x="474" y="755" type="line"/>
    </contour>
  </outline>
</glyph>
<glyph name="b" format="2">
  <advance width="886"/>
  <unicode hex="0062"/>
  <outline>
    <contour>
      <point x="442" y="102" type="qcurve" smooth="yes"/>
      <point x="532" y="102"/>
      <point x="574" y="153" type="qcurve" smooth="yes"/>
      <point x="637" y="228"/>
      <point x="637" y="336" type="qcurve" smooth="yes"/>
      <point x="637" y="445"/>
      <point x="574" y="522" type="qcurve" smooth="yes"/>
      <point x="532" y="573"/>
      <point x="442" y="573" type="qcurve" smooth="yes"/>
      <point x="352" y="573"/>
      <point x="310" y="522" type="qcurve" smooth="yes"/>
      <point x="247" y="445"/>
      <point x="247" y="336" type="qcurve" smooth="yes"/>
      <point x="247" y="228"/>
      <point x="310" y="153" type="qcurve" smooth="yes"/>
      <point x="352" y="102"/>
    </contour>
    <contour>
      <point x="135" y="0" type="line"/>
      <point x="135" y="972" type="line"/>
      <point x="247" y="972" type="line"/>
      <point x="247" y="583" type="line"/>
      <point x="267" y="619"/>
      <point x="336" y="655" type="qcurve" smooth="yes"/>
      <point x="384" y="682"/>
      <point x="457" y="682" type="qcurve" smooth="yes"/>
      <point x="597" y="682"/>
      <point x="655" y="613" type="qcurve" smooth="yes"/>
      <point x="751" y="500"/>
      <point x="751" y="336" type="qcurve" smooth="yes"/>
      <point x="751" y="171"/>
      <point x="655" y="58" type="qcurve" smooth="yes"/>
      <point x="597" y="-11"/>
      <point x="457" y="-11" type="qcurve" smooth="yes"/>
      <point x="389" y="-11"/>
      <point x="336" y="16" type="qcurve" smooth="yes"/>
      <point x="271" y="51"/>
      <point x="247" y="88" type="qcurve"/>
      <point x="247" y="0" type="line"/>
    </contour>
  </outline>
</glyph>
<glyph name="e" format="2">
  <advance width="886"/>
  <unicode hex="0065"/>
  <outline>
    <contour>
      <point x="276" y="436" type="qcurve"/>
      <point x="612" y="436" type="line"/>
      <point x="605" y="500"/>
      <point x="552" y="550" type="qcurve" smooth="yes"/>
      <point x="503" y="594"/>
      <point x="441" y="594" type="qcurve" smooth="yes"/>
      <point x="377" y="594"/>
      <point x="330" y="550" type="qcurve" smooth="yes"/>
      <point x="287" y="510"/>
    </contour>
    <contour>
      <point x="572" y="157" type="qcurve"/>
      <point x="699" y="157" type="line"/>
      <point x="687" y="92"/>
      <point x="626" y="46" type="qcurve" smooth="yes"/>
      <point x="564" y="0"/>
      <point x="464" y="0" type="qcurve" smooth="yes"/>
      <point x="315" y="0"/>
      <point x="240" y="84" type="qcurve" smooth="yes"/>
      <point x="153" y="181"/>
      <point x="153" y="349" type="qcurve" smooth="yes"/>
      <point x="153" y="512"/>
      <point x="240" y="610" type="qcurve" smooth="yes"/>
      <point x="321" y="698"/>
      <point x="441" y="698" type="qcurve" smooth="yes"/>
      <point x="573" y="698"/>
      <point x="645" y="610" type="qcurve" smooth="yes"/>
      <point x="732" y="504"/>
      <point x="732" y="345" type="qcurve" smooth="yes"/>
      <point x="732" y="328" type="line"/>
      <point x="273" y="328" type="line"/>
      <point x="273" y="218"/>
      <point x="330" y="163" type="qcurve" smooth="yes"/>
      <point x="386" y="108"/>
      <point x="464" y="108" type="qcurve" smooth="yes"/>
      <point x="520" y="108"/>
      <point x="548" y="124" type="qcurve" smooth="yes"/>
      <point x="564" y="134"/>
    </contour>
  </outline>
</glyph>
<glyph name="f" format="2">
  <advance width="886"/>
  <unicode hex="0066"/>
  <outline>
    <contour>
      <point x="495" y="0" type="line"/>
      <point x="383" y="0" type="line"/>
      <point x="383" y="562" type="line"/>
      <point x="191" y="562" type="line"/>
      <point x="191" y="667" type="line"/>
      <point x="377" y="667" type="line"/>
      <point x="377" y="735" type="line" smooth="yes"/>
      <point x="377" y="835"/>
      <point x="435" y="897" type="qcurve" smooth="yes"/>
      <point x="501" y="967"/>
      <point x="645" y="967" type="qcurve" smooth="yes"/>
      <point x="695" y="967" type="line"/>
      <point x="695" y="862" type="line"/>
      <point x="645" y="862" type="line" smooth="yes"/>
      <point x="558" y="860"/>
      <point x="523" y="810" type="qcurve" smooth="yes"/>
      <point x="499" y="775"/>
      <point x="499" y="729" type="qcurve" smooth="yes"/>
      <point x="499" y="667" type="line"/>
      <point x="695" y="667" type="line"/>
      <point x="695" y="562" type="line"/>
      <point x="495" y="562" type="line"/>
    </contour>
  </outline>
</glyph>
<glyph name="g" format="2">
  <advance width="886"/>
  <unicode hex="0067"/>
  <outline>
    <contour>
      <point x="441" y="147" type="qcurve" smooth="yes"/>
      <point x="527" y="147"/>
      <point x="572" y="199" type="qcurve" smooth="yes"/>
      <point x="623" y="258"/>
      <point x="623" y="357" type="qcurve" smooth="yes"/>
      <point x="623" y="456"/>
      <point x="572" y="514" type="qcurve" smooth="yes"/>
      <point x="525" y="567"/>
      <point x="440" y="567" type="qcurve" smooth="yes"/>
      <point x="353" y="567"/>
      <point x="308" y="514" type="qcurve" smooth="yes"/>
      <point x="261" y="460"/>
      <point x="261" y="357" type="qcurve" smooth="yes"/>
      <point x="261" y="253"/>
      <point x="308" y="199" type="qcurve" smooth="yes"/>
      <point x="353" y="147"/>
    </contour>
    <contour>
      <point x="623" y="120" type="line"/>
      <point x="599" y="87"/>
      <point x="549" y="60" type="qcurve" smooth="yes"/>
      <point x="507" y="37"/>
      <point x="441" y="37" type="qcurve" smooth="yes"/>
      <point x="291" y="37"/>
      <point x="210" y="133" type="qcurve" smooth="yes"/>
      <point x="149" y="207"/>
      <point x="149" y="357" type="qcurve" smooth="yes"/>
      <point x="149" y="519"/>
      <point x="240" y="610" type="qcurve" smooth="yes"/>
      <point x="306" y="676"/>
      <point x="444" y="676" type="qcurve" smooth="yes"/>
      <point x="503" y="676"/>
      <point x="549" y="654" type="qcurve" smooth="yes"/>
      <point x="606" y="625"/>
      <point x="623" y="594" type="qcurve"/>
      <point x="623" y="673" type="line"/>
      <point x="735" y="673" type="line"/>
      <point x="735" y="31" type="line" smooth="yes"/>
      <point x="735" y="-118"/>
      <point x="644" y="-188" type="qcurve" smooth="yes"/>
      <point x="588" y="-231"/>
      <point x="441" y="-231" type="qcurve" smooth="yes"/>
      <point x="299" y="-231"/>
      <point x="239" y="-188" type="qcurve" smooth="yes"/>
      <point x="185" y="-150"/>
      <point x="182" y="-65" type="qcurve"/>
      <point x="294" y="-65" type="line"/>
      <point x="295" y="-85"/>
      <point x="309" y="-98" type="qcurve" smooth="yes"/>
      <point x="338" y="-125"/>
      <point x="441" y="-125" type="qcurve" smooth="yes"/>
      <point x="543" y="-125"/>
      <point x="573" y="-98" type="qcurve" smooth="yes"/>
      <point x="623" y="-57"/>
      <point x="623" y="37" type="qcurve" smooth="yes"/>
    </contour>
  </outline>
</glyph>
<glyph name="h" format="2">
  <advance width="886"/>
  <unicode hex="0068"/>
  <outline>
    <contour>
      <point x="187" y="0" type="line"/>
      <point x="187" y="974" type="line"/>
      <point x="299" y="974" type="line"/>
      <point x="299" y="601" type="line"/>
      <point x="332" y="640"/>
      <point x="380" y="660" type="qcurve" smooth="yes"/>
      <point x="438" y="684"/>
      <point x="475" y="684" type="qcurve" smooth="yes"/>
      <point x="575" y="684"/>
      <point x="629" y="634" type="qcurve" smooth="yes"/>
      <point x="699" y="571"/>
      <point x="699" y="460" type="qcurve" smooth="yes"/>
      <point x="699" y="0" type="line"/>
      <point x="587" y="0" type="line"/>
      <point x="587" y="460" type="line" smooth="yes"/>
      <point x="587" y="523"/>
      <point x="551" y="550" type="qcurve" smooth="yes"/>
      <point x="520" y="572"/>
      <point x="475" y="572" type="qcurve" smooth="yes"/>
      <point x="471" y="572" type="line" smooth="yes"/>
      <point x="408" y="571"/>
      <point x="366" y="528" type="qcurve" smooth="yes"/>
      <point x="299" y="454"/>
      <point x="299" y="370" type="qcurve" smooth="yes"/>
      <point x="299" y="0" type="line"/>
    </contour>
  </outline>
</glyph>
<glyph name="i" format="2">
  <advance width="886"/>
  <unicode hex="0069"/>
  <outline>
    <contour>
      <point x="282" y="662" type="line"/>
      <point x="600" y="662" type="line"/>
      <point x="600" y="0" type="line"/>
      <point x="480" y="0" type="line"/>
      <point x="480" y="558" type="line"/>
      <point x="282" y="558" type="line"/>
    </contour>
    <contour>
      <point x="441" y="823" type="line"/>
      <point x="441" y="974" type="line"/>
      <point x="604" y="974" type="line"/>
      <point x="604" y="823" type="line"/>
    </contour>
  </outline>
</glyph>
<glyph name="j" format="2">
  <advance width="886"/>
  <unicode hex="006A"/>
  <outline>
    <contour>
      <point x="340" y="664" type="line"/>
      <point x="609" y="664" type="line"/>
      <point x="609" y="0" type="line"/>
      <point x="608" y="-210"/>
      <point x="396" y="-210" type="qcurve" smooth="yes"/>
      <point x="273" y="-210" type="line"/>
      <point x="273" y="-104" type="line"/>
      <point x="396" y="-104" type="line" smooth="yes"/>
      <point x="500" y="-104"/>
      <point x="501" y="0" type="qcurve" smooth="yes"/>
      <point x="501" y="563" type="line"/>
      <point x="340" y="563" type="line"/>
    </contour>
    <contour>
      <point x="450" y="824" type="line"/>
      <point x="450" y="976" type="line"/>
      <point x="613" y="976" type="line"/>
      <point x="613" y="824" type="line"/>
    </contour>
  </outline>
</glyph>
<glyph name="k" format="2">
  <advance width="886"/>
  <unicode hex="006B"/>
  <outline>
    <contour>
      <point x="153" y="981" type="line"/>
      <point x="270" y="981" type="line"/>
      <point x="270" y="421" type="line"/>
      <point x="279" y="421" type="line"/>
      <point x="546" y="678" type="line"/>
      <point x="716" y="678" type="line"/>
      <point x="383" y="381" type="line"/>
      <point x="745" y="0" type="line"/>
      <point x="579" y="0" type="line"/>
      <point x="279" y="330" type="line"/>
      <point x="270" y="330" type="line"/>
      <point x="270" y="0" type="line"/>
      <point x="153" y="0" type="line"/>
    </contour>
  </outline>
</glyph>
<glyph name="l" format="2">
  <advance width="886"/>
  <unicode hex="006C"/>
  <outline>
    <contour>
      <point x="267" y="978" type="line"/>
      <point x="379" y="978" type="line"/>
      <point x="379" y="275" type="line" smooth="yes"/>
      <point x="379" y="178"/>
      <point x="427" y="138" type="qcurve" smooth="yes"/>
      <point x="462" y="109"/>
      <point x="570" y="109" type="qcurve" smooth="yes"/>
      <point x="619" y="109" type="line"/>
      <point x="619" y="0" type="line"/>
      <point x="540" y="0" type="line" smooth="yes"/>
      <point x="394" y="0"/>
      <point x="330" y="53" type="qcurve" smooth="yes"/>
      <point x="267" y="103"/>
      <point x="267" y="252" type="qcurve" smooth="yes"/>
    </contour>
  </outline>
</glyph>
<glyph name="m" format="2">
  <advance width="886"/>
  <unicode hex="006D"/>
  <outline>
    <contour>
      <point x="133" y="678" type="line"/>
      <point x="236" y="678" type="line"/>
      <point x="236" y="633" type="line"/>
      <point x="262" y="659"/>
      <point x="290" y="670" type="qcurve" smooth="yes"/>
      <point x="323" y="682"/>
      <point x="351" y="683" type="qcurve" smooth="yes"/>
      <point x="376" y="683"/>
      <point x="412" y="668" type="qcurve" smooth="yes"/>
      <point x="445" y="653"/>
      <point x="467" y="618" type="qcurve"/>
      <point x="498" y="656"/>
      <point x="527" y="668" type="qcurve" smooth="yes"/>
      <point x="563" y="683"/>
      <point x="603" y="683" type="qcurve" smooth="yes"/>
      <point x="663" y="683"/>
      <point x="707" y="639" type="qcurve" smooth="yes"/>
      <point x="753" y="594"/>
      <point x="753" y="533" type="qcurve" smooth="yes"/>
      <point x="753" y="0" type="line"/>
      <point x="644" y="0" type="line"/>
      <point x="644" y="494" type="line" smooth="yes"/>
      <point x="644" y="542"/>
      <point x="626" y="558" type="qcurve"/>
      <point x="608" y="576"/>
      <point x="578" y="576" type="qcurve" smooth="yes"/>
      <point x="537" y="576"/>
      <point x="515" y="528" type="qcurve" smooth="yes"/>
      <point x="499" y="492"/>
      <point x="499" y="420" type="qcurve" smooth="yes"/>
      <point x="499" y="0" type="line"/>
      <point x="389" y="0" type="line"/>
      <point x="389" y="494" type="line" smooth="yes"/>
      <point x="389" y="537"/>
      <point x="373" y="557" type="qcurve" smooth="yes"/>
      <point x="357" y="576"/>
      <point x="319" y="576" type="qcurve" smooth="yes"/>
      <point x="279" y="576"/>
      <point x="257" y="528" type="qcurve" smooth="yes"/>
      <point x="243" y="498"/>
      <point x="242" y="420" type="qcurve"/>
      <point x="242" y="0" type="line"/>
      <point x="133" y="0" type="line"/>
    </contour>
  </outline>
</glyph>
<glyph name="n" format="2">
  <advance width="886"/>
  <unicode hex="006E"/>
  <outline>
    <contour>
      <point x="260" y="586" type="line"/>
      <point x="296" y="627"/>
      <point x="337" y="649" type="qcurve" smooth="yes"/>
      <point x="397" y="679"/>
      <point x="471" y="679" type="qcurve" smooth="yes"/>
      <point x="608" y="679"/>
      <point x="671" y="603" type="qcurve" smooth="yes"/>
      <point x="737" y="523"/>
      <point x="737" y="360" type="qcurve" smooth="yes"/>
      <point x="737" y="0" type="line"/>
      <point x="626" y="0" type="line"/>
      <point x="626" y="360" type="line" smooth="yes"/>
      <point x="626" y="487"/>
      <point x="593" y="526" type="qcurve" smooth="yes"/>
      <point x="554" y="576"/>
      <point x="464" y="576" type="qcurve" smooth="yes"/>
      <point x="362" y="576"/>
      <point x="307" y="495" type="qcurve" smooth="yes"/>
      <point x="260" y="426"/>
      <point x="260" y="303" type="qcurve" smooth="yes"/>
      <point x="260" y="0" type="line"/>
      <point x="149" y="0" type="line"/>
      <point x="149" y="673" type="line"/>
      <point x="260" y="673" type="line"/>
    </contour>
  </outline>
</glyph>
<glyph name="o" format="2">
  <advance width="886"/>
  <unicode hex="006F"/>
  <outline>
    <contour>
      <point x="443" y="106" type="qcurve" smooth="yes"/>
      <point x="533" y="106"/>
      <point x="584" y="168" type="qcurve" smooth="yes"/>
      <point x="639" y="237"/>
      <point x="639" y="347" type="qcurve" smooth="yes"/>
      <point x="639" y="457"/>
      <point x="584" y="526" type="qcurve" smooth="yes"/>
      <point x="533" y="588"/>
      <point x="443" y="588" type="qcurve" smooth="yes"/>
      <point x="353" y="588"/>
      <point x="302" y="526" type="qcurve" smooth="yes"/>
      <point x="247" y="457"/>
      <point x="247" y="347" type="qcurve" smooth="yes"/>
      <point x="247" y="237"/>
      <point x="302" y="168" type="qcurve" smooth="yes"/>
      <point x="353" y="106"/>
    </contour>
    <contour>
      <point x="443" y="0" type="qcurve" smooth="yes"/>
      <point x="288" y="0"/>
      <point x="201" y="112" type="qcurve" smooth="yes"/>
      <point x="131" y="202"/>
      <point x="129" y="347" type="qcurve" smooth="yes"/>
      <point x="131" y="496"/>
      <point x="201" y="582" type="qcurve" smooth="yes"/>
      <point x="287" y="694"/>
      <point x="443" y="694" type="qcurve" smooth="yes"/>
      <point x="596" y="694"/>
      <point x="685" y="582" type="qcurve" smooth="yes"/>
      <point x="757" y="495"/>
      <point x="757" y="347" type="qcurve" smooth="yes"/>
      <point x="757" y="191"/>
      <point x="685" y="112" type="qcurve" smooth="yes"/>
      <point x="584" y="0"/>
    </contour>
  </outline>
</glyph>
<glyph name="p" format="2">
  <advance width="886"/>
  <unicode hex="0070"/>
  <outline>
    <contour>
      <point x="442" y="580" type="qcurve" smooth="yes"/>
      <point x="352" y="580"/>
      <point x="310" y="529" type="qcurve" smooth="yes"/>
      <point x="247" y="454"/>
      <point x="247" y="346" type="qcurve" smooth="yes"/>
      <point x="247" y="236"/>
      <point x="310" y="160" type="qcurve" smooth="yes"/>
      <point x="352" y="109"/>
      <point x="442" y="109" type="qcurve" smooth="yes"/>
      <point x="532" y="109"/>
      <point x="574" y="160" type="qcurve" smooth="yes"/>
      <point x="637" y="236"/>
      <point x="637" y="346" type="qcurve" smooth="yes"/>
      <point x="637" y="454"/>
      <point x="574" y="529" type="qcurve" smooth="yes"/>
      <point x="532" y="580"/>
    </contour>
    <contour>
      <point x="135" y="682" type="line"/>
      <point x="247" y="682" type="line"/>
      <point x="247" y="594" type="line"/>
      <point x="271" y="631"/>
      <point x="336" y="666" type="qcurve" smooth="yes"/>
      <point x="389" y="692"/>
      <point x="457" y="692" type="qcurve" smooth="yes"/>
      <point x="597" y="692"/>
      <point x="655" y="624" type="qcurve" smooth="yes"/>
      <point x="751" y="510"/>
      <point x="751" y="346" type="qcurve" smooth="yes"/>
      <point x="751" y="182"/>
      <point x="655" y="68" type="qcurve" smooth="yes"/>
      <point x="597" y="0"/>
      <point x="457" y="0" type="qcurve" smooth="yes"/>
      <point x="384" y="0"/>
      <point x="336" y="26" type="qcurve" smooth="yes"/>
      <point x="267" y="62"/>
      <point x="247" y="98" type="qcurve"/>
      <point x="247" y="-210" type="line"/>
      <point x="135" y="-210" type="line"/>
    </contour>
  </outline>
</glyph>
<glyph name="q" format="2">
  <advance width="886"/>
  <unicode hex="0071"/>
  <outline>
    <contour>
      <point x="444" y="580" type="qcurve" smooth="yes"/>
      <point x="354" y="580"/>
      <point x="312" y="529" type="qcurve" smooth="yes"/>
      <point x="249" y="454"/>
      <point x="249" y="346" type="qcurve" smooth="yes"/>
      <point x="249" y="236"/>
      <point x="312" y="160" type="qcurve" smooth="yes"/>
      <point x="354" y="109"/>
      <point x="444" y="109" type="qcurve" smooth="yes"/>
      <point x="534" y="109"/>
      <point x="576" y="160" type="qcurve" smooth="yes"/>
      <point x="639" y="236"/>
      <point x="639" y="346" type="qcurve" smooth="yes"/>
      <point x="639" y="454"/>
      <point x="576" y="529" type="qcurve" smooth="yes"/>
      <point x="534" y="580"/>
    </contour>
    <contour>
      <point x="751" y="682" type="line"/>
      <point x="751" y="-210" type="line"/>
      <point x="639" y="-210" type="line"/>
      <point x="639" y="98" type="line"/>
      <point x="619" y="62"/>
      <point x="550" y="26" type="qcurve" smooth="yes"/>
      <point x="502" y="0"/>
      <point x="429" y="0" type="qcurve" smooth="yes"/>
      <point x="289" y="0"/>
      <point x="231" y="68" type="qcurve" smooth="yes"/>
      <point x="135" y="182"/>
      <point x="135" y="346" type="qcurve" smooth="yes"/>
      <point x="135" y="510"/>
      <point x="231" y="624" type="qcurve" smooth="yes"/>
      <point x="289" y="692"/>
      <point x="429" y="692" type="qcurve" smooth="yes"/>
      <point x="497" y="692"/>
      <point x="550" y="666" type="qcurve" smooth="yes"/>
      <point x="615" y="631"/>
      <point x="639" y="594" type="qcurve"/>
      <point x="639" y="682" type="line"/>
    </contour>
  </outline>
</glyph>
<glyph name="r" format="2">
  <advance width="886"/>
  <unicode hex="0072"/>
  <outline>
    <contour>
      <point x="308" y="586" type="line"/>
      <point x="348" y="631"/>
      <point x="384" y="649" type="qcurve" smooth="yes"/>
      <point x="445" y="679"/>
      <point x="497" y="679" type="qcurve" smooth="yes"/>
      <point x="580" y="679"/>
      <point x="633" y="621" type="qcurve" smooth="yes"/>
      <point x="687" y="563"/>
      <point x="687" y="474" type="qcurve" smooth="yes"/>
      <point x="687" y="468" type="line"/>
      <point x="576" y="468" type="line"/>
      <point x="576" y="517"/>
      <point x="554" y="546" type="qcurve" smooth="yes"/>
      <point x="530" y="576"/>
      <point x="489" y="576" type="qcurve" smooth="yes"/>
      <point x="409" y="576"/>
      <point x="354" y="495" type="qcurve" smooth="yes"/>
      <point x="308" y="426"/>
      <point x="308" y="303" type="qcurve" smooth="yes"/>
      <point x="308" y="0" type="line"/>
      <point x="197" y="0" type="line"/>
      <point x="197" y="673" type="line"/>
      <point x="308" y="673" type="line"/>
    </contour>
  </outline>
</glyph>
<glyph name="s" format="2">
  <advance width="886"/>
  <unicode hex="0073"/>
  <outline>
    <contour>
      <point x="302" y="173" type="line"/>
      <point x="310" y="137"/>
      <point x="380" y="100"/>
      <point x="445" y="100" type="qcurve" smooth="yes"/>
      <point x="526" y="100"/>
      <point x="606" y="145"/>
      <point x="606" y="190" type="qcurve" smooth="yes"/>
      <point x="606" y="220"/>
      <point x="567" y="253"/>
      <point x="506" y="270" type="qcurve" smooth="yes"/>
      <point x="403" y="299" type="line" smooth="yes"/>
      <point x="303" y="327"/>
      <point x="210" y="416"/>
      <point x="210" y="486" type="qcurve" smooth="yes"/>
      <point x="210" y="581"/>
      <point x="345" y="674"/>
      <point x="483" y="674" type="qcurve" smooth="yes"/>
      <point x="589" y="674"/>
      <point x="700" y="580"/>
      <point x="701" y="488" type="qcurve"/>
      <point x="589" y="487" type="line"/>
      <point x="585" y="534"/>
      <point x="529" y="572"/>
      <point x="458" y="572" type="qcurve" smooth="yes"/>
      <point x="391" y="572"/>
      <point x="323" y="531"/>
      <point x="323" y="490" type="qcurve" smooth="yes"/>
      <point x="323" y="458"/>
      <point x="372" y="419"/>
      <point x="448" y="400" type="qcurve" smooth="yes"/>
      <point x="546" y="374" type="line" smooth="yes"/>
      <point x="633" y="352"/>
      <point x="724" y="261"/>
      <point x="724" y="198" type="qcurve" smooth="yes"/>
      <point x="724" y="103"/>
      <point x="581" y="-4"/>
      <point x="455" y="-4" type="qcurve" smooth="yes"/>
      <point x="328" y="-4"/>
      <point x="201" y="81"/>
      <point x="189" y="173" type="qcurve"/>
    </contour>
  </outline>
</glyph>
<glyph name="t" format="2">
  <advance width="886"/>
  <unicode hex="0074"/>
  <outline>
    <contour>
      <point x="465" y="877" type="line"/>
      <point x="465" y="676" type="line"/>
      <point x="699" y="676" type="line"/>
      <point x="699" y="568" type="line"/>
      <point x="468" y="568" type="line"/>
      <point x="468" y="238" type="line" smooth="yes"/>
      <point x="468" y="169"/>
      <point x="483" y="151" type="qcurve"/>
      <point x="517" y="105"/>
      <point x="567" y="105" type="qcurve" smooth="yes"/>
      <point x="633" y="105"/>
      <point x="699" y="135" type="qcurve"/>
      <point x="699" y="30" type="line"/>
      <point x="692" y="28"/>
      <point x="685" y="24" type="qcurve"/>
      <point x="625" y="0"/>
      <point x="559" y="0" type="qcurve" smooth="yes"/>
      <point x="445" y="0"/>
      <point x="393" y="61" type="qcurve" smooth="yes"/>
      <point x="346" y="121"/>
      <point x="346" y="232" type="qcurve" smooth="yes"/>
      <point x="346" y="568" type="line"/>
      <point x="187" y="568" type="line"/>
      <point x="187" y="676" type="line"/>
      <point x="352" y="676" type="line"/>
      <point x="352" y="847" type="line"/>
    </contour>
  </outline>
</glyph>
<glyph name="u" format="2">
  <advance width="886"/>
  <unicode hex="0075"/>
  <outline>
    <contour>
      <point x="626" y="87" type="line"/>
      <point x="590" y="46"/>
      <point x="549" y="24" type="qcurve" smooth="yes"/>
      <point x="489" y="-6"/>
      <point x="415" y="-6" type="qcurve" smooth="yes"/>
      <point x="278" y="-6"/>
      <point x="215" y="70" type="qcurve" smooth="yes"/>
      <point x="149" y="150"/>
      <point x="149" y="313" type="qcurve" smooth="yes"/>
      <point x="149" y="673" type="line"/>
      <point x="260" y="673" type="line"/>
      <point x="260" y="313" type="line" smooth="yes"/>
      <point x="260" y="186"/>
      <point x="293" y="147" type="qcurve" smooth="yes"/>
      <point x="332" y="97"/>
      <point x="422" y="97" type="qcurve" smooth="yes"/>
      <point x="524" y="97"/>
      <point x="579" y="178" type="qcurve" smooth="yes"/>
      <point x="626" y="247"/>
      <point x="626" y="370" type="qcurve" smooth="yes"/>
      <point x="626" y="673" type="line"/>
      <point x="737" y="673" type="line"/>
      <point x="737" y="0" type="line"/>
      <point x="626" y="0" type="line"/>
    </contour>
  </outline>
</glyph>
<glyph name="v" format="2">
  <advance width="886"/>
  <unicode hex="0076"/>
  <outline>
    <contour>
      <point x="355" y="0" type="line"/>
      <point x="117" y="666" type="line"/>
      <point x="237" y="666" type="line"/>
      <point x="441" y="81" type="line"/>
      <point x="653" y="666" type="line"/>
      <point x="769" y="666" type="line"/>
      <point x="525" y="0" type="line"/>
    </contour>
  </outline>
</glyph>
<glyph name="w" format="2">
  <advance width="886"/>
  <unicode hex="0077"/>
  <outline>
    <contour>
      <point x="217" y="0" type="line"/>
      <point x="138" y="666" type="line"/>
      <point x="250" y="666" type="line"/>
      <point x="304" y="157" type="line"/>
      <point x="382" y="409" type="line"/>
      <point x="505" y="409" type="line"/>
      <point x="583" y="157" type="line"/>
      <point x="640" y="666" type="line"/>
      <point x="748" y="666" type="line"/>
      <point x="670" y="0" type="line"/>
      <point x="526" y="0" type="line"/>
      <point x="444" y="285" type="line"/>
      <point x="361" y="0" type="line"/>
    </contour>
  </outline>
</glyph>
<glyph name="x" format="2">
  <advance width="886"/>
  <unicode hex="0078"/>
  <outline>
    <contour>
      <point x="441" y="438" type="line"/>
      <point x="611" y="674" type="line"/>
      <point x="737" y="674" type="line"/>
      <point x="513" y="344" type="line"/>
      <point x="753" y="0" type="line"/>
      <point x="605" y="0" type="line"/>
      <point x="439" y="247" type="line"/>
      <point x="265" y="0" type="line"/>
      <point x="133" y="0" type="line"/>
      <point x="375" y="336" type="line"/>
      <point x="139" y="674" type="line"/>
      <point x="283" y="674" type="line"/>
    </contour>
  </outline>
</glyph>
<glyph name="y" format="2">
  <advance width="886"/>
  <unicode hex="0079"/>
  <outline>
    <contour>
      <point x="387" y="163" type="line"/>
      <point x="92" y="671" type="line"/>
      <point x="229" y="671" type="line"/>
      <point x="453" y="277" type="line"/>
      <point x="671" y="671" type="line"/>
      <point x="794" y="671" type="line"/>
      <point x="337" y="-161" type="line" smooth="yes"/>
      <point x="302" y="-224"/>
      <point x="205" y="-224" type="qcurve" smooth="yes"/>
      <point x="135" y="-224" type="line"/>
      <point x="135" y="-119" type="line"/>
      <point x="205" y="-119" type="line" smooth="yes"/>
      <point x="238" y="-119"/>
      <point x="259" y="-80" type="qcurve" smooth="yes"/>
    </contour>
  </outline>
</glyph>
<glyph name="z" format="2">
  <advance width="886"/>
  <unicode hex="007A"/>
  <outline>
    <contour>
      <point x="177" y="0" type="line"/>
      <point x="177" y="114" type="line"/>
      <point x="559" y="546" type="line"/>
      <point x="201" y="546" type="line"/>
      <point x="201" y="654" type="line"/>
      <point x="697" y="654" type="line"/>
      <point x="697" y="535" type="line"/>
      <point x="325" y="108" type="line"/>
      <point x="709" y="108" type="line"/>
      <point x="709" y="0" type="line"/>
    </contour>
  </outline>
</glyph>
<glyph name="braceleft" format="2">
  <advance width="886"/>
  <unicode hex="007B"/>
  <outline>
    <contour>
      <point x="733" y="990" type="line"/>
      <point x="733" y="873" type="line"/>
      <point x="645" y="873" type="line" smooth="yes"/>
      <point x="526" y="873"/>
      <point x="495" y="835" type="qcurve" smooth="yes"/>
      <point x="474" y="810"/>
      <point x="472" y="779" type="qcurve" smooth="yes"/>
      <point x="462" y="625" type="line" smooth="yes"/>
      <point x="457" y="547"/>
      <point x="412" y="519" type="qcurve"/>
      <point x="366" y="499" type="line"/>
      <point x="411" y="480" type="line" smooth="yes"/>
      <point x="456" y="461"/>
      <point x="462" y="365" type="qcurve" smooth="yes"/>
      <point x="472" y="207" type="line" smooth="yes"/>
      <point x="474" y="175"/>
      <point x="504" y="153" type="qcurve" smooth="yes"/>
      <point x="548" y="120"/>
      <point x="645" y="120" type="qcurve" smooth="yes"/>
      <point x="733" y="120" type="line"/>
      <point x="733" y="0" type="line"/>
      <point x="642" y="0" type="line" smooth="yes"/>
      <point x="469" y="0"/>
      <point x="396" y="87" type="qcurve" smooth="yes"/>
      <point x="355" y="135"/>
      <point x="352" y="180" type="qcurve" smooth="yes"/>
      <point x="343" y="345" type="line" smooth="yes"/>
      <point x="342" y="387"/>
      <point x="309" y="414" type="qcurve" smooth="yes"/>
      <point x="278" y="439"/>
      <point x="229" y="439" type="qcurve" smooth="yes"/>
      <point x="153" y="439" type="line"/>
      <point x="153" y="557" type="line"/>
      <point x="229" y="557" type="line" smooth="yes"/>
      <point x="277" y="558"/>
      <point x="315" y="591" type="qcurve" smooth="yes"/>
      <point x="331" y="606"/>
      <point x="340" y="654" type="qcurve"/>
      <point x="352" y="797" type="line" smooth="yes"/>
      <point x="361" y="906"/>
      <point x="435" y="953" type="qcurve" smooth="yes"/>
      <point x="493" y="990"/>
      <point x="634" y="990" type="qcurve" smooth="yes"/>
    </contour>
  </outline>
</glyph>
<glyph name="bar" format="2">
  <advance width="886"/>
  <unicode hex="007C"/>
  <outline>
    <contour>
      <point x="385" y="-75" type="line"/>
      <point x="385" y="1077" type="line"/>
      <point x="501" y="1077" type="line"/>
      <point x="501" y="-75" type="line"/>
    </contour>
  </outline>
</glyph>
<glyph name="braceright" format="2">
  <advance width="886"/>
  <unicode hex="007D"/>
  <outline>
    <contour>
      <point x="153" y="990" type="line"/>
      <point x="252" y="990" type="line" smooth="yes"/>
      <point x="393" y="990"/>
      <point x="451" y="953" type="qcurve" smooth="yes"/>
      <point x="525" y="906"/>
      <point x="534" y="797" type="qcurve" smooth="yes"/>
      <point x="546" y="654" type="line"/>
      <point x="555" y="606"/>
      <point x="571" y="591" type="qcurve" smooth="yes"/>
      <point x="609" y="558"/>
      <point x="657" y="557" type="qcurve" smooth="yes"/>
      <point x="733" y="557" type="line"/>
      <point x="733" y="439" type="line"/>
      <point x="657" y="439" type="line" smooth="yes"/>
      <point x="608" y="439"/>
      <point x="577" y="414" type="qcurve" smooth="yes"/>
      <point x="544" y="387"/>
      <point x="543" y="345" type="qcurve" smooth="yes"/>
      <point x="534" y="180" type="line" smooth="yes"/>
      <point x="531" y="135"/>
      <point x="490" y="87" type="qcurve" smooth="yes"/>
      <point x="417" y="0"/>
      <point x="244" y="0" type="qcurve" smooth="yes"/>
      <point x="153" y="0" type="line"/>
      <point x="153" y="120" type="line"/>
      <point x="241" y="120" type="line" smooth="yes"/>
      <point x="338" y="120"/>
      <point x="382" y="153" type="qcurve" smooth="yes"/>
      <point x="412" y="175"/>
      <point x="414" y="207" type="qcurve" smooth="yes"/>
      <point x="424" y="365" type="line" smooth="yes"/>
      <point x="430" y="461"/>
      <point x="475" y="480" type="qcurve" smooth="yes"/>
      <point x="520" y="499" type="line"/>
      <point x="474" y="519" type="line"/>
      <point x="429" y="547"/>
      <point x="424" y="625" type="qcurve" smooth="yes"/>
      <point x="414" y="779" type="line" smooth="yes"/>
      <point x="412" y="810"/>
      <point x="391" y="835" type="qcurve" smooth="yes"/>
      <point x="360" y="873"/>
      <point x="241" y="873" type="qcurve" smooth="yes"/>
      <point x="153" y="873" type="line"/>
    </contour>
  </outline>
</glyph>
<glyph name="asciitilde" format="2">
  <advance width="886"/>
  <unicode hex="007E"/>
  <outline>
    <contour>
      <point x="181" y="804" type="line"/>
      <point x="181" y="884"/>
      <point x="213" y="934" type="qcurve"/>
      <point x="253" y="990"/>
      <point x="337" y="990" type="qcurve" smooth="yes"/>
      <point x="387" y="990"/>
      <point x="433" y="958" type="qcurve"/>
      <point x="493" y="922" type="line"/>
      <point x="525" y="900"/>
      <point x="543" y="900" type="qcurve" smooth="yes"/>
      <point x="567" y="900"/>
      <point x="579" y="920" type="qcurve" smooth="yes"/>
      <point x="590" y="938"/>
      <point x="590" y="964" type="qcurve"/>
      <point x="705" y="964" type="line"/>
      <point x="705" y="865"/>
      <point x="657" y="819" type="qcurve" smooth="yes"/>
      <point x="619" y="784"/>
      <point x="543" y="784" type="qcurve" smooth="yes"/>
      <point x="501" y="784"/>
      <point x="459" y="810" type="qcurve" smooth="yes"/>
      <point x="387" y="857" type="line"/>
      <point x="370" y="872"/>
      <point x="337" y="872" type="qcurve" smooth="yes"/>
      <point x="315" y="872"/>
      <point x="303" y="848" type="qcurve"/>
      <point x="295" y="828"/>
      <point x="295" y="804" type="qcurve"/>
    </contour>
  </outline>
</glyph>
<glyph name="exclamdown" format="2">
  <advance width="886"/>
  <unicode hex="00A1"/>
  <outline>
    <contour>
      <point x="494" y="352" type="line"/>
      <point x="504" y="-246" type="line"/>
      <point x="365" y="-246" type="line"/>
      <point x="377" y="352" type="line"/>
    </contour>
    <contour>
      <point x="533" y="726" type="line"/>
      <point x="533" y="576" type="line"/>
      <point x="353" y="576" type="line"/>
      <point x="353" y="726" type="line"/>
    </contour>
  </outline>
</glyph>
<glyph name="cent" format="2">
  <advance width="886"/>
  <unicode hex="00A2"/>
  <outline>
    <contour>
      <point x="496" y="687" type="line"/>
      <point x="484" y="690"/>
      <point x="464" y="690" type="qcurve" smooth="yes"/>
      <point x="435" y="690"/>
      <point x="390" y="684" type="qcurve"/>
      <point x="390" y="883" type="line"/>
      <point x="496" y="883" type="line"/>
    </contour>
    <contour>
      <point x="390" y="6" type="line"/>
      <point x="417" y="1"/>
      <point x="455" y="1" type="qcurve" smooth="yes"/>
      <point x="474" y="1"/>
      <point x="496" y="2" type="qcurve"/>
      <point x="496" y="-194" type="line"/>
      <point x="390" y="-194" type="line"/>
    </contour>
    <contour>
      <point x="572" y="216" type="qcurve"/>
      <point x="695" y="216" type="line"/>
      <point x="695" y="143"/>
      <point x="656" y="84" type="qcurve" smooth="yes"/>
      <point x="599" y="0"/>
      <point x="457" y="0" type="qcurve" smooth="yes"/>
      <point x="322" y="0"/>
      <point x="257" y="84" type="qcurve" smooth="yes"/>
      <point x="191" y="170"/>
      <point x="191" y="345" type="qcurve" smooth="yes"/>
      <point x="191" y="520"/>
      <point x="257" y="606" type="qcurve" smooth="yes"/>
      <point x="322" y="690"/>
      <point x="457" y="690" type="qcurve" smooth="yes"/>
      <point x="599" y="690"/>
      <point x="656" y="606" type="qcurve" smooth="yes"/>
      <point x="695" y="549"/>
      <point x="695" y="495" type="qcurve"/>
      <point x="572" y="495" type="line"/>
      <point x="571" y="511"/>
      <point x="561" y="529" type="qcurve"/>
      <point x="526" y="583"/>
      <point x="457" y="583" type="qcurve" smooth="yes"/>
      <point x="391" y="583"/>
      <point x="350" y="529" type="qcurve" smooth="yes"/>
      <point x="311" y="479"/>
      <point x="311" y="345" type="qcurve" smooth="yes"/>
      <point x="311" y="224"/>
      <point x="350" y="161" type="qcurve" smooth="yes"/>
      <point x="383" y="107"/>
      <point x="457" y="107" type="qcurve" smooth="yes"/>
      <point x="459" y="107" type="line" smooth="yes"/>
      <point x="529" y="107"/>
      <point x="561" y="161" type="qcurve"/>
      <point x="572" y="177"/>
    </contour>
  </outline>
</glyph>
<glyph name="sterling" format="2">
  <advance width="886"/>
  <unicode hex="00A3"/>
  <outline>
    <contour>
      <point x="140" y="0" type="line"/>
      <point x="140" y="120" type="line"/>
      <point x="257" y="120" type="line"/>
      <point x="330" y="435" type="line"/>
      <point x="184" y="435" type="line"/>
      <point x="184" y="555" type="line"/>
      <point x="360" y="555" type="line"/>
      <point x="422" y="817" type="line"/>
      <point x="444" y="890"/>
      <point x="502" y="937" type="qcurve" smooth="yes"/>
      <point x="544" y="972"/>
      <point x="624" y="973" type="qcurve" smooth="yes"/>
      <point x="626" y="973" type="line" smooth="yes"/>
      <point x="678" y="973"/>
      <point x="746" y="931" type="qcurve"/>
      <point x="746" y="778" type="line"/>
      <point x="713" y="801"/>
      <point x="678" y="826" type="qcurve"/>
      <point x="639" y="849"/>
      <point x="622" y="849" type="qcurve" smooth="yes"/>
      <point x="593" y="849"/>
      <point x="569" y="826" type="qcurve" smooth="yes"/>
      <point x="545" y="804"/>
      <point x="538" y="778" type="qcurve" smooth="yes"/>
      <point x="515" y="693"/>
      <point x="478" y="555" type="qcurve"/>
      <point x="608" y="555" type="line"/>
      <point x="608" y="435" type="line"/>
      <point x="449" y="435" type="line"/>
      <point x="377" y="120" type="line"/>
      <point x="728" y="120" type="line"/>
      <point x="728" y="0" type="line"/>
    </contour>
  </outline>
</glyph>
<glyph name="currency" format="2">
  <advance width="886"/>
  <unicode hex="00A4"/>
  <outline>
    <contour>
      <point x="218" y="345" type="line"/>
      <point x="173" y="397"/>
      <point x="173" y="491" type="qcurve" smooth="yes"/>
      <point x="173" y="579"/>
      <point x="216" y="630" type="qcurve"/>
      <point x="119" y="729" type="line"/>
      <point x="198" y="813" type="line"/>
      <point x="293" y="713" type="line"/>
      <point x="346" y="756"/>
      <point x="440" y="756" type="qcurve" smooth="yes"/>
      <point x="524" y="756"/>
      <point x="590" y="713" type="qcurve"/>
      <point x="682" y="809" type="line"/>
      <point x="768" y="729" type="line"/>
      <point x="664" y="627" type="line"/>
      <point x="706" y="565"/>
      <point x="706" y="491" type="qcurve" smooth="yes"/>
      <point x="706" y="397"/>
      <point x="664" y="342" type="qcurve"/>
      <point x="758" y="247" type="line"/>
      <point x="680" y="165" type="line"/>
      <point x="584" y="265" type="line"/>
      <point x="538" y="229"/>
      <point x="440" y="225" type="qcurve" smooth="yes"/>
      <point x="429" y="225" type="line" smooth="yes"/>
      <point x="355" y="225"/>
      <point x="293" y="265" type="qcurve"/>
      <point x="197" y="167" type="line"/>
      <point x="118" y="249" type="line"/>
    </contour>
    <contour>
      <point x="440" y="339" type="qcurve" smooth="yes"/>
      <point x="514" y="339"/>
      <point x="556" y="381" type="qcurve" smooth="yes"/>
      <point x="596" y="419"/>
      <point x="596" y="491" type="qcurve" smooth="yes"/>
      <point x="596" y="563"/>
      <point x="554" y="600" type="qcurve" smooth="yes"/>
      <point x="509" y="641"/>
      <point x="440" y="641" type="qcurve" smooth="yes"/>
      <point x="370" y="641"/>
      <point x="324" y="599" type="qcurve" smooth="yes"/>
      <point x="284" y="561"/>
      <point x="284" y="491" type="qcurve" smooth="yes"/>
      <point x="284" y="427"/>
      <point x="320" y="386" type="qcurve" smooth="yes"/>
      <point x="364" y="339"/>
    </contour>
  </outline>
</glyph>
<glyph name="yen" format="2">
  <advance width="886"/>
  <unicode hex="00A5"/>
  <outline>
    <contour>
      <point x="377" y="0" type="line"/>
      <point x="377" y="297" type="line"/>
      <point x="110" y="297" type="line"/>
      <point x="110" y="417" type="line"/>
      <point x="377" y="417" type="line"/>
      <point x="377" y="576" type="line"/>
      <point x="83" y="983" type="line"/>
      <point x="248" y="983" type="line"/>
      <point x="436" y="711" type="line"/>
      <point x="650" y="983" type="line"/>
      <point x="803" y="983" type="line"/>
      <point x="494" y="579" type="line"/>
      <point x="494" y="417" type="line"/>
      <point x="756" y="417" type="line"/>
      <point x="756" y="297" type="line"/>
      <point x="494" y="297" type="line"/>
      <point x="494" y="0" type="line"/>
    </contour>
  </outline>
</glyph>
<glyph name="brokenbar" format="2">
  <advance width="886"/>
  <unicode hex="00A6"/>
  <outline>
    <contour>
      <point x="384" y="-332" type="line"/>
      <point x="384" y="1000" type="line"/>
      <point x="502" y="1000" type="line"/>
      <point x="502" y="-332" type="line"/>
    </contour>
  </outline>
</glyph>
<glyph name="section" format="2">
  <advance width="886"/>
  <unicode hex="00A7"/>
  <outline>
    <contour>
      <point x="558" y="412" type="qcurve"/>
      <point x="565" y="411"/>
      <point x="571" y="411" type="qcurve" smooth="yes"/>
      <point x="598" y="411"/>
      <point x="616" y="424" type="qcurve" smooth="yes"/>
      <point x="636" y="439"/>
      <point x="636" y="478" type="qcurve" smooth="yes"/>
      <point x="636" y="525"/>
      <point x="592" y="537" type="qcurve" smooth="yes"/>
      <point x="359" y="589" type="line"/>
      <point x="351" y="590"/>
      <point x="343" y="590" type="qcurve" smooth="yes"/>
      <point x="315" y="590"/>
      <point x="299" y="576" type="qcurve" smooth="yes"/>
      <point x="276" y="556"/>
      <point x="276" y="519" type="qcurve" smooth="yes"/>
      <point x="276" y="472"/>
      <point x="318" y="463" type="qcurve" smooth="yes"/>
      <point x="550" y="414"/>
    </contour>
    <contour>
      <point x="137" y="243" type="qcurve"/>
      <point x="264" y="243" type="line"/>
      <point x="264" y="198"/>
      <point x="312" y="160" type="qcurve" smooth="yes"/>
      <point x="364" y="120"/>
      <point x="446" y="118" type="qcurve" smooth="yes"/>
      <point x="533" y="118"/>
      <point x="568" y="139" type="qcurve" smooth="yes"/>
      <point x="610" y="166"/>
      <point x="610" y="214" type="qcurve" smooth="yes"/>
      <point x="610" y="279"/>
      <point x="551" y="294" type="qcurve" smooth="yes"/>
      <point x="262" y="354" type="line"/>
      <point x="214" y="369"/>
      <point x="188" y="409" type="qcurve" smooth="yes"/>
      <point x="158" y="456"/>
      <point x="158" y="517" type="qcurve" smooth="yes"/>
      <point x="158" y="576"/>
      <point x="192" y="615" type="qcurve" smooth="yes"/>
      <point x="218" y="645"/>
      <point x="246" y="657" type="qcurve"/>
      <point x="221" y="684"/>
      <point x="215" y="697" type="qcurve" smooth="yes"/>
      <point x="200" y="731"/>
      <point x="200" y="769" type="qcurve" smooth="yes"/>
      <point x="200" y="778" type="line" smooth="yes"/>
      <point x="204" y="885"/>
      <point x="300" y="945" type="qcurve" smooth="yes"/>
      <point x="363" y="985"/>
      <point x="480" y="985" type="qcurve" smooth="yes"/>
      <point x="491" y="985" type="line" smooth="yes"/>
      <point x="611" y="984"/>
      <point x="692" y="906" type="qcurve" smooth="yes"/>
      <point x="743" y="856"/>
      <point x="744" y="763" type="qcurve"/>
      <point x="616" y="763" type="line"/>
      <point x="616" y="767" type="line" smooth="yes"/>
      <point x="616" y="799"/>
      <point x="600" y="822" type="qcurve" smooth="yes"/>
      <point x="575" y="856"/>
      <point x="497" y="864" type="qcurve" smooth="yes"/>
      <point x="482" y="866"/>
      <point x="467" y="866" type="qcurve" smooth="yes"/>
      <point x="416" y="866"/>
      <point x="371" y="846" type="qcurve" smooth="yes"/>
      <point x="332" y="829"/>
      <point x="322" y="787" type="qcurve"/>
      <point x="320" y="781"/>
      <point x="320" y="774" type="qcurve" smooth="yes"/>
      <point x="320" y="752"/>
      <point x="340" y="727" type="qcurve" smooth="yes"/>
      <point x="354" y="708"/>
      <point x="389" y="697" type="qcurve"/>
      <point x="624" y="645" type="line" smooth="yes"/>
      <point x="748" y="612"/>
      <point x="749" y="484" type="qcurve" smooth="yes"/>
      <point x="749" y="433"/>
      <point x="730" y="394" type="qcurve" smooth="yes"/>
      <point x="712" y="357"/>
      <point x="677" y="346" type="qcurve"/>
      <point x="692" y="337"/>
      <point x="713" y="309" type="qcurve"/>
      <point x="737" y="273"/>
      <point x="737" y="208" type="qcurve" smooth="yes"/>
      <point x="737" y="133"/>
      <point x="677" y="72" type="qcurve" smooth="yes"/>
      <point x="607" y="0"/>
      <point x="451" y="0" type="qcurve" smooth="yes"/>
      <point x="443" y="0" type="line" smooth="yes"/>
      <point x="308" y="1"/>
      <point x="215" y="75" type="qcurve" smooth="yes"/>
      <point x="137" y="136"/>
    </contour>
  </outline>
</glyph>
<glyph name="copyright" format="2">
  <advance width="886"/>
  <unicode hex="00A9"/>
  <outline>
    <contour>
      <point x="442" y="60" type="qcurve" smooth="yes"/>
      <point x="706" y="60"/>
      <point x="706" y="361" type="qcurve" smooth="yes"/>
      <point x="706" y="662"/>
      <point x="442" y="662" type="qcurve" smooth="yes"/>
      <point x="178" y="662"/>
      <point x="178" y="361" type="qcurve" smooth="yes"/>
      <point x="178" y="60"/>
    </contour>
    <contour>
      <point x="442" y="0" type="qcurve" smooth="yes"/>
      <point x="115" y="0"/>
      <point x="113" y="361" type="qcurve" smooth="yes"/>
      <point x="118" y="722"/>
      <point x="442" y="722" type="qcurve" smooth="yes"/>
      <point x="771" y="722"/>
      <point x="771" y="361" type="qcurve" smooth="yes"/>
      <point x="771" y="0"/>
    </contour>
    <contour>
      <point x="500" y="240" type="line"/>
      <point x="562" y="240" type="line"/>
      <point x="562" y="194"/>
      <point x="532" y="165" type="qcurve" smooth="yes"/>
      <point x="501" y="136"/>
      <point x="451" y="133" type="qcurve"/>
      <point x="442" y="133" type="line" smooth="yes"/>
      <point x="404" y="133"/>
      <point x="374" y="156" type="qcurve" smooth="yes"/>
      <point x="338" y="182"/>
      <point x="321" y="230" type="qcurve" smooth="yes"/>
      <point x="301" y="288"/>
      <point x="301" y="362" type="qcurve" smooth="yes"/>
      <point x="301" y="438"/>
      <point x="321" y="494" type="qcurve" smooth="yes"/>
      <point x="336" y="539"/>
      <point x="372" y="566" type="qcurve" smooth="yes"/>
      <point x="407" y="592"/>
      <point x="451" y="592" type="qcurve" smooth="yes"/>
      <point x="500" y="592"/>
      <point x="521" y="570" type="qcurve" smooth="yes"/>
      <point x="561" y="530"/>
      <point x="561" y="489" type="qcurve"/>
      <point x="503" y="489" type="line"/>
      <point x="502" y="500" type="line"/>
      <point x="500" y="509"/>
      <point x="489" y="521" type="qcurve" smooth="yes"/>
      <point x="479" y="533"/>
      <point x="448" y="533" type="qcurve" smooth="yes"/>
      <point x="410" y="533"/>
      <point x="387" y="497" type="qcurve" smooth="yes"/>
      <point x="365" y="459"/>
      <point x="365" y="376" type="qcurve" smooth="yes"/>
      <point x="365" y="362" type="line" smooth="yes"/>
      <point x="367" y="268"/>
      <point x="392" y="228" type="qcurve" smooth="yes"/>
      <point x="415" y="191"/>
      <point x="448" y="191" type="qcurve" smooth="yes"/>
      <point x="475" y="191"/>
      <point x="490" y="208" type="qcurve"/>
      <point x="497" y="215"/>
      <point x="499" y="230" type="qcurve" smooth="yes"/>
    </contour>
  </outline>
</glyph>
<glyph name="guillemotleft" format="2">
  <advance width="886"/>
  <unicode hex="00AB"/>
  <outline>
    <contour>
      <point x="490" y="467" type="line"/>
      <point x="760" y="230" type="line"/>
      <point x="760" y="125" type="line"/>
      <point x="381" y="453" type="line"/>
      <point x="381" y="480" type="line"/>
      <point x="760" y="804" type="line"/>
      <point x="760" y="698" type="line"/>
    </contour>
    <contour>
      <point x="235" y="467" type="line"/>
      <point x="505" y="230" type="line"/>
      <point x="505" y="125" type="line"/>
      <point x="126" y="453" type="line"/>
      <point x="126" y="480" type="line"/>
      <point x="505" y="804" type="line"/>
      <point x="505" y="698" type="line"/>
    </contour>
  </outline>
</glyph>
<glyph name="logicalnot" format="2">
  <advance width="886"/>
  <unicode hex="00AC"/>
  <outline>
    <contour>
      <point x="634" y="439" type="line"/>
      <point x="123" y="439" type="line"/>
      <point x="123" y="567" type="line"/>
      <point x="763" y="567" type="line"/>
      <point x="763" y="193" type="line"/>
      <point x="634" y="193" type="line"/>
    </contour>
  </outline>
</glyph>
<glyph name="softhyphen" format="2">
  <advance width="886"/>
  <unicode hex="00AD"/>
  <outline>
    <contour>
      <point x="158" y="454" type="line"/>
      <point x="158" y="574" type="line"/>
      <point x="728" y="574" type="line"/>
      <point x="728" y="454" type="line"/>
    </contour>
  </outline>
</glyph>
<glyph name="registered" format="2">
  <advance width="886"/>
  <unicode hex="00AE"/>
  <outline>
    <contour>
      <point x="443" y="60" type="qcurve" smooth="yes"/>
      <point x="707" y="60"/>
      <point x="707" y="361" type="qcurve" smooth="yes"/>
      <point x="707" y="662"/>
      <point x="443" y="662" type="qcurve" smooth="yes"/>
      <point x="179" y="662"/>
      <point x="179" y="361" type="qcurve" smooth="yes"/>
      <point x="179" y="60"/>
    </contour>
    <contour>
      <point x="443" y="0" type="qcurve" smooth="yes"/>
      <point x="116" y="0"/>
      <point x="114" y="361" type="qcurve" smooth="yes"/>
      <point x="119" y="722"/>
      <point x="443" y="722" type="qcurve" smooth="yes"/>
      <point x="772" y="722"/>
      <point x="772" y="361" type="qcurve" smooth="yes"/>
      <point x="772" y="0"/>
    </contour>
    <contour>
      <point x="360" y="392" type="line"/>
      <point x="426" y="392" type="line" smooth="yes"/>
      <point x="466" y="392"/>
      <point x="482" y="407" type="qcurve" smooth="yes"/>
      <point x="506" y="428"/>
      <point x="506" y="461" type="qcurve" smooth="yes"/>
      <point x="506" y="494"/>
      <point x="482" y="514" type="qcurve" smooth="yes"/>
      <point x="466" y="528"/>
      <point x="426" y="528" type="qcurve" smooth="yes"/>
      <point x="360" y="528" type="line"/>
    </contour>
    <contour>
      <point x="298" y="144" type="line"/>
      <point x="298" y="588" type="line"/>
      <point x="427" y="588" type="line" smooth="yes"/>
      <point x="496" y="588"/>
      <point x="529" y="560" type="qcurve" smooth="yes"/>
      <point x="574" y="520"/>
      <point x="574" y="460" type="qcurve" smooth="yes"/>
      <point x="574" y="398"/>
      <point x="529" y="362" type="qcurve"/>
      <point x="510" y="345"/>
      <point x="481" y="338" type="qcurve"/>
      <point x="535" y="240"/>
      <point x="589" y="144" type="qcurve"/>
      <point x="522" y="144" type="line"/>
      <point x="470" y="238"/>
      <point x="420" y="332" type="qcurve"/>
      <point x="360" y="332" type="line"/>
      <point x="360" y="144" type="line"/>
    </contour>
  </outline>
</glyph>
<glyph name="macron" format="2">
  <advance width="886"/>
  <unicode hex="00AF"/>
  <outline>
    <contour>
      <point x="143" y="851" type="line"/>
      <point x="143" y="960" type="line"/>
      <point x="743" y="960" type="line"/>
      <point x="743" y="851" type="line"/>
    </contour>
  </outline>
</glyph>
<glyph name="degree" format="2">
  <advance width="886"/>
  <unicode hex="00B0"/>
  <outline>
    <contour>
      <point x="453" y="748" type="qcurve" smooth="yes"/>
      <point x="461" y="747"/>
      <point x="469" y="747" type="qcurve" smooth="yes"/>
      <point x="511" y="747"/>
      <point x="537" y="782" type="qcurve" smooth="yes"/>
      <point x="556" y="808"/>
      <point x="556" y="836" type="qcurve" smooth="yes"/>
      <point x="556" y="854"/>
      <point x="549" y="872" type="qcurve" smooth="yes"/>
      <point x="530" y="920"/>
      <point x="477" y="928" type="qcurve" smooth="yes"/>
      <point x="469" y="929"/>
      <point x="461" y="929" type="qcurve" smooth="yes"/>
      <point x="419" y="929"/>
      <point x="393" y="893" type="qcurve" smooth="yes"/>
      <point x="374" y="867"/>
      <point x="374" y="839" type="qcurve" smooth="yes"/>
      <point x="374" y="821"/>
      <point x="381" y="803" type="qcurve" smooth="yes"/>
      <point x="400" y="755"/>
    </contour>
    <contour>
      <point x="462" y="683" type="line" smooth="yes"/>
      <point x="372" y="684"/>
      <point x="328" y="764" type="qcurve" smooth="yes"/>
      <point x="307" y="801"/>
      <point x="307" y="838" type="qcurve" smooth="yes"/>
      <point x="307" y="879"/>
      <point x="332" y="920" type="qcurve" smooth="yes"/>
      <point x="377" y="995"/>
      <point x="466" y="995" type="qcurve" smooth="yes"/>
      <point x="468" y="995" type="line" smooth="yes"/>
      <point x="558" y="994"/>
      <point x="602" y="914" type="qcurve" smooth="yes"/>
      <point x="623" y="877"/>
      <point x="623" y="840" type="qcurve" smooth="yes"/>
      <point x="623" y="799"/>
      <point x="598" y="758" type="qcurve" smooth="yes"/>
      <point x="553" y="683"/>
      <point x="464" y="683" type="qcurve" smooth="yes"/>
    </contour>
  </outline>
</glyph>
<glyph name="plusminus" format="2">
  <advance width="886"/>
  <unicode hex="00B1"/>
  <outline>
    <contour>
      <point x="148" y="0" type="line"/>
      <point x="148" y="140" type="line"/>
      <point x="738" y="140" type="line"/>
      <point x="738" y="0" type="line"/>
    </contour>
    <contour>
      <point x="384" y="563" type="line"/>
      <point x="384" y="821" type="line"/>
      <point x="508" y="821" type="line"/>
      <point x="508" y="563" type="line"/>
      <point x="736" y="563" type="line"/>
      <point x="736" y="441" type="line"/>
      <point x="508" y="441" type="line"/>
      <point x="508" y="186" type="line"/>
      <point x="384" y="186" type="line"/>
      <point x="384" y="441" type="line"/>
      <point x="150" y="441" type="line"/>
      <point x="150" y="563" type="line"/>
    </contour>
  </outline>
</glyph>
<glyph name="acute" format="2">
  <advance width="886"/>
  <unicode hex="00B4"/>
  <outline>
    <contour>
      <point x="345" y="778" type="line"/>
      <point x="471" y="990" type="line"/>
      <point x="621" y="990" type="line"/>
      <point x="460" y="778" type="line"/>
    </contour>
  </outline>
</glyph>
<glyph name="mu" format="2">
  <advance width="886"/>
  <unicode hex="00B5"/>
  <outline>
    <contour>
      <point x="626" y="87" type="line"/>
      <point x="586" y="42"/>
      <point x="550" y="24" type="qcurve" smooth="yes"/>
      <point x="488" y="-6"/>
      <point x="414" y="-6" type="qcurve" smooth="yes"/>
      <point x="296" y="-6"/>
      <point x="260" y="36" type="qcurve"/>
      <point x="260" y="-210" type="line"/>
      <point x="149" y="-210" type="line"/>
      <point x="149" y="673" type="line"/>
      <point x="260" y="673" type="line"/>
      <point x="260" y="313" type="line" smooth="yes"/>
      <point x="260" y="186"/>
      <point x="293" y="147" type="qcurve" smooth="yes"/>
      <point x="332" y="97"/>
      <point x="422" y="97" type="qcurve" smooth="yes"/>
      <point x="524" y="97"/>
      <point x="580" y="178" type="qcurve" smooth="yes"/>
      <point x="626" y="247"/>
      <point x="626" y="370" type="qcurve" smooth="yes"/>
      <point x="626" y="673" type="line"/>
      <point x="737" y="673" type="line"/>
      <point x="737" y="0" type="line"/>
      <point x="626" y="0" type="line"/>
    </contour>
  </outline>
</glyph>
<glyph name="paragraph" format="2">
  <advance width="886"/>
  <unicode hex="00B6"/>
  <outline>
    <contour>
      <point x="311" y="648" type="line"/>
      <point x="311" y="519" type="line"/>
      <point x="124" y="519"/>
      <point x="124" y="708" type="qcurve" smooth="yes"/>
      <point x="124" y="900"/>
      <point x="311" y="900" type="qcurve" smooth="yes"/>
      <point x="762" y="900" type="line"/>
      <point x="762" y="0" type="line"/>
      <point x="634" y="0" type="line"/>
      <point x="634" y="771" type="line"/>
      <point x="504" y="771" type="line"/>
      <point x="504" y="0" type="line"/>
      <point x="376" y="0" type="line"/>
      <point x="376" y="771" type="line"/>
      <point x="311" y="771" type="line" smooth="yes"/>
      <point x="252" y="771"/>
      <point x="252" y="708" type="qcurve" smooth="yes"/>
      <point x="252" y="648"/>
      <point x="310" y="648" type="qcurve" smooth="yes"/>
    </contour>
  </outline>
</glyph>
<glyph name="periodcentered" format="2">
  <advance width="886"/>
  <unicode hex="00B7"/>
  <outline>
    <contour>
      <point x="443" y="320" type="qcurve" smooth="yes"/>
      <point x="364" y="320"/>
      <point x="364" y="400" type="qcurve" smooth="yes"/>
      <point x="364" y="480"/>
      <point x="443" y="480" type="qcurve" smooth="yes"/>
      <point x="522" y="480"/>
      <point x="522" y="400" type="qcurve" smooth="yes"/>
      <point x="522" y="320"/>
    </contour>
  </outline>
</glyph>
<glyph name="cedilla" format="2">
  <advance width="886"/>
  <unicode hex="00B8"/>
  <outline>
    <contour>
      <point x="432" y="0" type="line"/>
      <point x="538" y="0" type="line"/>
      <point x="474" y="-250" type="line"/>
      <point x="348" y="-250" type="line"/>
    </contour>
  </outline>
</glyph>
<glyph name="guillemotright" format="2">
  <advance width="886"/>
  <unicode hex="00BB"/>
  <outline>
    <contour>
      <point x="126" y="698" type="line"/>
      <point x="126" y="804" type="line"/>
      <point x="505" y="480" type="line"/>
      <point x="505" y="453" type="line"/>
      <point x="126" y="125" type="line"/>
      <point x="126" y="230" type="line"/>
      <point x="396" y="467" type="line"/>
    </contour>
    <contour>
      <point x="381" y="698" type="line"/>
      <point x="381" y="804" type="line"/>
      <point x="760" y="480" type="line"/>
      <point x="760" y="453" type="line"/>
      <point x="381" y="125" type="line"/>
      <point x="381" y="230" type="line"/>
      <point x="651" y="467" type="line"/>
    </contour>
  </outline>
</glyph>
<glyph name="questiondown" format="2">
  <advance width="886"/>
  <unicode hex="00BF"/>
  <outline>
    <contour>
      <point x="498" y="346" type="line"/>
      <point x="498" y="286" type="line" smooth="yes"/>
      <point x="498" y="235"/>
      <point x="447" y="187" type="qcurve" smooth="yes"/>
      <point x="375" y="123" type="line" smooth="yes"/>
      <point x="335" y="87"/>
      <point x="321" y="47" type="qcurve"/>
      <point x="310" y="26"/>
      <point x="310" y="-8" type="qcurve" smooth="yes"/>
      <point x="310" y="-61"/>
      <point x="342" y="-97" type="qcurve" smooth="yes"/>
      <point x="368" y="-125"/>
      <point x="423" y="-125" type="qcurve" smooth="yes"/>
      <point x="430" y="-125" type="line" smooth="yes"/>
      <point x="501" y="-125"/>
      <point x="536" y="-95" type="qcurve" smooth="yes"/>
      <point x="589" y="-49"/>
      <point x="589" y="-5" type="qcurve" smooth="yes"/>
      <point x="589" y="49" type="line"/>
      <point x="712" y="49" type="line"/>
      <point x="712" y="-5" type="line" smooth="yes"/>
      <point x="712" y="-111"/>
      <point x="622" y="-190" type="qcurve" smooth="yes"/>
      <point x="557" y="-247"/>
      <point x="438" y="-247" type="qcurve" smooth="yes"/>
      <point x="342" y="-247"/>
      <point x="273" y="-199" type="qcurve" smooth="yes"/>
      <point x="174" y="-130"/>
      <point x="174" y="-16" type="qcurve" smooth="yes"/>
      <point x="174" y="92"/>
      <point x="238" y="154" type="qcurve" smooth="yes"/>
      <point x="333" y="244" type="line" smooth="yes"/>
      <point x="365" y="275"/>
      <point x="367" y="304" type="qcurve" smooth="yes"/>
      <point x="370" y="346" type="line"/>
    </contour>
    <contour>
      <point x="525" y="670" type="line"/>
      <point x="525" y="508" type="line"/>
      <point x="345" y="508" type="line"/>
      <point x="345" y="670" type="line"/>
    </contour>
  </outline>
</glyph>
<glyph name="Adieresis" format="2">
  <advance width="886"/>
  <unicode hex="00C4"/>
  <outline>
    <contour>
      <point x="162" y="881" type="line"/>
      <point x="285" y="881" type="line"/>
      <point x="279" y="742" type="line"/>
      <point x="156" y="742" type="line"/>
    </contour>
    <contour>
      <point x="337" y="373" type="line"/>
      <point x="555" y="373" type="line"/>
      <point x="447" y="772" type="line"/>
    </contour>
    <contour>
      <point x="120" y="0" type="line"/>
      <point x="369" y="901" type="line"/>
      <point x="537" y="901" type="line"/>
      <point x="766" y="0" type="line"/>
      <point x="640" y="0" type="line"/>
      <point x="574" y="252" type="line"/>
      <point x="307" y="252" type="line"/>
      <point x="235" y="0" type="line"/>
    </contour>
    <contour>
      <point x="632" y="881" type="line"/>
      <point x="755" y="881" type="line"/>
      <point x="749" y="742" type="line"/>
      <point x="626" y="742" type="line"/>
    </contour>
  </outline>
</glyph>
<glyph name="Aring" format="2">
  <advance width="886"/>
  <unicode hex="00C5"/>
  <outline>
    <contour>
      <point x="394" y="582" type="qcurve"/>
      <point x="366" y="480"/>
      <point x="338" y="374" type="qcurve"/>
      <point x="554" y="374" type="line"/>
      <point x="522" y="491"/>
      <point x="497" y="582" type="qcurve"/>
      <point x="471" y="577"/>
      <point x="445" y="577" type="qcurve" smooth="yes"/>
      <point x="419" y="577"/>
    </contour>
    <contour>
      <point x="642" y="0" type="line"/>
      <point x="605" y="140"/>
      <point x="575" y="252" type="qcurve"/>
      <point x="308" y="252" type="line"/>
      <point x="236" y="0" type="line"/>
      <point x="119" y="0" type="line"/>
      <point x="287" y="607" type="line"/>
      <point x="272" y="612"/>
      <point x="256" y="626" type="qcurve" smooth="yes"/>
      <point x="184" y="686"/>
      <point x="184" y="792" type="qcurve" smooth="yes"/>
      <point x="184" y="897"/>
      <point x="262" y="960" type="qcurve" smooth="yes"/>
      <point x="316" y="1006"/>
      <point x="443" y="1006" type="qcurve" smooth="yes"/>
      <point x="566" y="1006"/>
      <point x="624" y="960" type="qcurve" smooth="yes"/>
      <point x="702" y="900"/>
      <point x="702" y="792" type="qcurve" smooth="yes"/>
      <point x="702" y="686"/>
      <point x="624" y="626" type="qcurve"/>
      <point x="623" y="624"/>
      <point x="610" y="615" type="qcurve"/>
      <point x="767" y="0" type="line"/>
    </contour>
    <contour>
      <point x="443" y="696" type="qcurve" smooth="yes"/>
      <point x="510" y="696"/>
      <point x="590" y="748"/>
      <point x="590" y="792" type="qcurve" smooth="yes"/>
      <point x="590" y="840"/>
      <point x="550" y="868" type="qcurve" smooth="yes"/>
      <point x="512" y="893"/>
      <point x="443" y="893" type="qcurve" smooth="yes"/>
      <point x="371" y="893"/>
      <point x="335" y="868" type="qcurve" smooth="yes"/>
      <point x="300" y="843"/>
      <point x="300" y="792" type="qcurve" smooth="yes"/>
      <point x="300" y="745"/>
      <point x="335" y="722" type="qcurve" smooth="yes"/>
      <point x="373" y="696"/>
    </contour>
  </outline>
</glyph>
<glyph name="AE" format="2">
  <advance width="886"/>
  <unicode hex="00C6"/>
  <outline>
    <contour>
      <point x="320" y="347" type="line"/>
      <point x="473" y="347" type="line"/>
      <point x="440" y="789" type="line"/>
      <point x="402" y="789" type="line"/>
    </contour>
    <contour>
      <point x="132" y="0" type="line"/>
      <point x="312" y="906" type="line"/>
      <point x="754" y="906" type="line"/>
      <point x="754" y="789" type="line"/>
      <point x="550" y="789" type="line"/>
      <point x="574" y="528" type="line"/>
      <point x="737" y="528" type="line"/>
      <point x="737" y="408" type="line"/>
      <point x="584" y="408" type="line"/>
      <point x="605" y="121" type="line"/>
      <point x="754" y="120" type="line"/>
      <point x="754" y="0" type="line"/>
      <point x="492" y="0" type="line"/>
      <point x="476" y="222" type="line"/>
      <point x="296" y="222" type="line"/>
      <point x="251" y="0" type="line"/>
    </contour>
  </outline>
</glyph>
<glyph name="Odieresis" format="2">
  <advance width="886"/>
  <unicode hex="00D6"/>
  <outline>
    <contour>
      <point x="631" y="990" type="line"/>
      <point x="754" y="990" type="line"/>
      <point x="748" y="792" type="line"/>
      <point x="625" y="792" type="line"/>
    </contour>
    <contour>
      <point x="142" y="990" type="line"/>
      <point x="265" y="990" type="line"/>
      <point x="259" y="792" type="line"/>
      <point x="136" y="792" type="line"/>
    </contour>
    <contour>
      <point x="443" y="92" type="qcurve" smooth="yes"/>
      <point x="527" y="92"/>
      <point x="571" y="162" type="qcurve" smooth="yes"/>
      <point x="625" y="249"/>
      <point x="625" y="384" type="qcurve" smooth="yes"/>
      <point x="625" y="517"/>
      <point x="571" y="604" type="qcurve" smooth="yes"/>
      <point x="527" y="673"/>
      <point x="443" y="673" type="qcurve" smooth="yes"/>
      <point x="361" y="673"/>
      <point x="315" y="604" type="qcurve" smooth="yes"/>
      <point x="259" y="514"/>
      <point x="259" y="384" type="qcurve" smooth="yes"/>
      <point x="259" y="253"/>
      <point x="315" y="162" type="qcurve" smooth="yes"/>
      <point x="361" y="92"/>
    </contour>
    <contour>
      <point x="443" y="-7" type="qcurve" smooth="yes"/>
      <point x="302" y="-7"/>
      <point x="205" y="114" type="qcurve" smooth="yes"/>
      <point x="127" y="211"/>
      <point x="127" y="384" type="qcurve" smooth="yes"/>
      <point x="127" y="558"/>
      <point x="205" y="654" type="qcurve" smooth="yes"/>
      <point x="302" y="775"/>
      <point x="443" y="775" type="qcurve" smooth="yes"/>
      <point x="584" y="775"/>
      <point x="681" y="654" type="qcurve" smooth="yes"/>
      <point x="759" y="558"/>
      <point x="759" y="384" type="qcurve" smooth="yes"/>
      <point x="759" y="211"/>
      <point x="681" y="114" type="qcurve" smooth="yes"/>
      <point x="584" y="-7"/>
    </contour>
  </outline>
</glyph>
<glyph name="Udieresis" format="2">
  <advance width="886"/>
  <unicode hex="00DC"/>
  <outline>
    <contour>
      <point x="542" y="856" type="line"/>
      <point x="542" y="978" type="line"/>
      <point x="740" y="978" type="line"/>
      <point x="740" y="856" type="line"/>
    </contour>
    <contour>
      <point x="148" y="856" type="line"/>
      <point x="148" y="978" type="line"/>
      <point x="346" y="978" type="line"/>
      <point x="346" y="856" type="line"/>
    </contour>
    <contour>
      <point x="151" y="721" type="line"/>
      <point x="273" y="721" type="line"/>
      <point x="273" y="235" type="line" smooth="yes"/>
      <point x="273" y="157"/>
      <point x="320" y="117" type="qcurve" smooth="yes"/>
      <point x="351" y="90"/>
      <point x="443" y="90" type="qcurve" smooth="yes"/>
      <point x="535" y="90"/>
      <point x="566" y="117" type="qcurve" smooth="yes"/>
      <point x="613" y="157"/>
      <point x="613" y="235" type="qcurve" smooth="yes"/>
      <point x="613" y="721" type="line"/>
      <point x="735" y="721" type="line"/>
      <point x="735" y="235" type="line" smooth="yes"/>
      <point x="735" y="111"/>
      <point x="665" y="53" type="qcurve" smooth="yes"/>
      <point x="593" y="-6"/>
      <point x="443" y="-6" type="qcurve" smooth="yes"/>
      <point x="293" y="-6"/>
      <point x="221" y="53" type="qcurve" smooth="yes"/>
      <point x="151" y="111"/>
      <point x="151" y="235" type="qcurve" smooth="yes"/>
    </contour>
  </outline>
</glyph>
<glyph name="Thorn" format="2">
  <advance width="886"/>
  <unicode hex="00DE"/>
  <outline>
    <contour>
      <point x="124" y="0" type="line"/>
      <point x="124" y="998" type="line"/>
      <point x="253" y="998" type="line"/>
      <point x="253" y="758" type="line"/>
      <point x="569" y="758" type="line" smooth="yes"/>
      <point x="763" y="758"/>
      <point x="763" y="565" type="qcurve" smooth="yes"/>
      <point x="763" y="472" type="line" smooth="yes"/>
      <point x="763" y="278"/>
      <point x="569" y="278" type="qcurve" smooth="yes"/>
      <point x="253" y="278" type="line"/>
      <point x="253" y="0" type="line"/>
    </contour>
    <contour>
      <point x="253" y="408" type="line"/>
      <point x="569" y="408" type="line" smooth="yes"/>
      <point x="634" y="408"/>
      <point x="634" y="472" type="qcurve" smooth="yes"/>
      <point x="634" y="565" type="line" smooth="yes"/>
      <point x="634" y="630"/>
      <point x="569" y="630" type="qcurve" smooth="yes"/>
      <point x="253" y="630" type="line"/>
    </contour>
  </outline>
</glyph>
<glyph name="germandbls" format="2">
  <advance width="886"/>
  <unicode hex="00DF"/>
  <outline>
    <contour>
      <point x="146" y="0" type="line"/>
      <point x="146" y="688" type="line" smooth="yes"/>
      <point x="146" y="856"/>
      <point x="250" y="930" type="qcurve" smooth="yes"/>
      <point x="325" y="984"/>
      <point x="449" y="985" type="qcurve" smooth="yes"/>
      <point x="455" y="985" type="line" smooth="yes"/>
      <point x="567" y="985"/>
      <point x="642" y="909" type="qcurve" smooth="yes"/>
      <point x="710" y="841"/>
      <point x="710" y="727" type="qcurve" smooth="yes"/>
      <point x="710" y="724" type="line"/>
      <point x="709" y="610"/>
      <point x="638" y="554" type="qcurve" smooth="yes"/>
      <point x="624" y="543"/>
      <point x="590" y="522" type="qcurve"/>
      <point x="627" y="506"/>
      <point x="671" y="463" type="qcurve" smooth="yes"/>
      <point x="740" y="399"/>
      <point x="740" y="271" type="qcurve" smooth="yes"/>
      <point x="740" y="131"/>
      <point x="671" y="72" type="qcurve" smooth="yes"/>
      <point x="587" y="0"/>
      <point x="422" y="0" type="qcurve"/>
      <point x="422" y="112" type="line"/>
      <point x="543" y="114"/>
      <point x="581" y="154" type="qcurve" smooth="yes"/>
      <point x="622" y="198"/>
      <point x="622" y="275" type="qcurve" smooth="yes"/>
      <point x="622" y="279" type="line" smooth="yes"/>
      <point x="620" y="368"/>
      <point x="554" y="416" type="qcurve" smooth="yes"/>
      <point x="518" y="442"/>
      <point x="437" y="454" type="qcurve"/>
      <point x="437" y="579" type="line"/>
      <point x="498" y="586"/>
      <point x="554" y="628" type="qcurve" smooth="yes"/>
      <point x="592" y="658"/>
      <point x="592" y="726" type="qcurve" smooth="yes"/>
      <point x="592" y="736" type="line"/>
      <point x="589" y="795"/>
      <point x="544" y="837" type="qcurve" smooth="yes"/>
      <point x="508" y="870"/>
      <point x="449" y="870" type="qcurve" smooth="yes"/>
      <point x="356" y="870"/>
      <point x="322" y="837" type="qcurve" smooth="yes"/>
      <point x="260" y="777"/>
      <point x="258" y="685" type="qcurve"/>
      <point x="258" y="0" type="line"/>
    </contour>
  </outline>
</glyph>
<glyph name="adieresis" format="2">
  <advance width="886"/>
  <unicode hex="00E4"/>
  <outline>
    <contour>
      <point x="309" y="889" type="line"/>
      <point x="432" y="889" type="line"/>
      <point x="426" y="750" type="line"/>
      <point x="303" y="750" type="line"/>
    </contour>
    <contour>
      <point x="528" y="889" type="line"/>
      <point x="651" y="889" type="line"/>
      <point x="645" y="750" type="line"/>
      <point x="522" y="750" type="line"/>
    </contour>
    <contour>
      <point x="614" y="315" type="qcurve"/>
      <point x="601" y="316"/>
      <point x="579" y="317" type="qcurve" smooth="yes"/>
      <point x="549" y="319"/>
      <point x="541" y="319" type="qcurve" smooth="yes"/>
      <point x="416" y="319"/>
      <point x="294" y="261"/>
      <point x="294" y="201" type="qcurve" smooth="yes"/>
      <point x="294" y="159"/>
      <point x="358" y="105"/>
      <point x="410" y="105" type="qcurve" smooth="yes"/>
      <point x="496" y="105"/>
      <point x="610" y="222"/>
    </contour>
    <contour>
      <point x="614" y="93" type="line"/>
      <point x="574" y="46"/>
      <point x="469" y="0"/>
      <point x="407" y="0" type="qcurve" smooth="yes"/>
      <point x="302" y="0"/>
      <point x="175" y="113"/>
      <point x="175" y="206" type="qcurve" smooth="yes"/>
      <point x="175" y="318"/>
      <point x="361" y="422"/>
      <point x="560" y="422" type="qcurve" smooth="yes"/>
      <point x="569" y="422"/>
      <point x="605" y="421"/>
      <point x="614" y="421" type="qcurve"/>
      <point x="614" y="425" type="line" smooth="yes"/>
      <point x="614" y="503"/>
      <point x="536" y="573"/>
      <point x="449" y="573" type="qcurve" smooth="yes"/>
      <point x="401" y="573"/>
      <point x="349" y="548"/>
      <point x="340" y="521" type="qcurve"/>
      <point x="218" y="521" type="line"/>
      <point x="226" y="597"/>
      <point x="346" y="676"/>
      <point x="452" y="676" type="qcurve" smooth="yes"/>
      <point x="593" y="676"/>
      <point x="723" y="553"/>
      <point x="723" y="419" type="qcurve" smooth="yes"/>
      <point x="723" y="9" type="line"/>
      <point x="614" y="9" type="line"/>
    </contour>
  </outline>
</glyph>
<glyph name="aring" format="2">
  <advance width="886"/>
  <unicode hex="00E5"/>
  <outline>
    <contour>
      <point x="478" y="709" type="qcurve" smooth="yes"/>
      <point x="554" y="709"/>
      <point x="635" y="769"/>
      <point x="635" y="824" type="qcurve" smooth="yes"/>
      <point x="635" y="881"/>
      <point x="554" y="940"/>
      <point x="478" y="940" type="qcurve" smooth="yes"/>
      <point x="402" y="940"/>
      <point x="321" y="881"/>
      <point x="321" y="824" type="qcurve" smooth="yes"/>
      <point x="321" y="768"/>
      <point x="402" y="709"/>
    </contour>
    <contour>
      <point x="645" y="334" type="qcurve"/>
      <point x="630" y="336"/>
      <point x="607" y="337" type="qcurve" smooth="yes"/>
      <point x="574" y="338"/>
      <point x="564" y="338" type="qcurve" smooth="yes"/>
      <point x="427" y="338"/>
      <point x="293" y="275"/>
      <point x="293" y="209" type="qcurve" smooth="yes"/>
      <point x="293" y="162"/>
      <point x="365" y="103"/>
      <point x="424" y="103" type="qcurve" smooth="yes"/>
      <point x="517" y="103"/>
      <point x="642" y="233"/>
    </contour>
    <contour>
      <point x="645" y="91" type="line"/>
      <point x="602" y="40"/>
      <point x="487" y="-12"/>
      <point x="417" y="-12" type="qcurve" smooth="yes"/>
      <point x="302" y="-12"/>
      <point x="162" y="112"/>
      <point x="162" y="214" type="qcurve" smooth="yes"/>
      <point x="162" y="338"/>
      <point x="367" y="452"/>
      <point x="585" y="452" type="qcurve" smooth="yes"/>
      <point x="596" y="452"/>
      <point x="635" y="451"/>
      <point x="645" y="451" type="qcurve"/>
      <point x="645" y="466" type="line" smooth="yes"/>
      <point x="645" y="534"/>
      <point x="558" y="611"/>
      <point x="481" y="611" type="qcurve" smooth="yes"/>
      <point x="424" y="611"/>
      <point x="342" y="566"/>
      <point x="324" y="525" type="qcurve"/>
      <point x="201" y="525" type="line"/>
      <point x="204" y="577"/>
      <point x="254" y="645"/>
      <point x="301" y="662" type="qcurve"/>
      <point x="256" y="690"/>
      <point x="210" y="771"/>
      <point x="210" y="826" type="qcurve" smooth="yes"/>
      <point x="210" y="925"/>
      <point x="353" y="1041"/>
      <point x="478" y="1041" type="qcurve" smooth="yes"/>
      <point x="600" y="1041"/>
      <point x="746" y="925"/>
      <point x="746" y="829" type="qcurve" smooth="yes"/>
      <point x="746" y="774"/>
      <point x="706" y="698"/>
      <point x="660" y="662" type="qcurve"/>
      <point x="716" y="643"/>
      <point x="764" y="538"/>
      <point x="764" y="431" type="qcurve" smooth="yes"/>
      <point x="764" y="-2" type="line"/>
      <point x="645" y="-2" type="line"/>
    </contour>
  </outline>
</glyph>
<glyph name="ae" format="2">
  <advance width="886"/>
  <unicode hex="00E6"/>
  <outline>
    <contour>
      <point x="406" y="418" type="qcurve"/>
      <point x="407" y="433"/>
      <point x="407" y="446" type="qcurve" smooth="yes"/>
      <point x="407" y="486"/>
      <point x="400" y="516" type="qcurve" smooth="yes"/>
      <point x="391" y="560"/>
      <point x="373" y="576" type="qcurve" smooth="yes"/>
      <point x="355" y="592"/>
      <point x="320" y="592" type="qcurve" smooth="yes"/>
      <point x="316" y="592" type="line" smooth="yes"/>
      <point x="287" y="592"/>
      <point x="274" y="574" type="qcurve" smooth="yes"/>
      <point x="256" y="550"/>
      <point x="256" y="510" type="qcurve"/>
      <point x="139" y="510" type="line"/>
      <point x="139" y="591"/>
      <point x="189" y="645" type="qcurve" smooth="yes"/>
      <point x="236" y="696"/>
      <point x="319" y="697" type="qcurve" smooth="yes"/>
      <point x="328" y="697" type="line" smooth="yes"/>
      <point x="372" y="697"/>
      <point x="391" y="688" type="qcurve" smooth="yes"/>
      <point x="437" y="668"/>
      <point x="451" y="637" type="qcurve"/>
      <point x="469" y="660"/>
      <point x="508" y="681" type="qcurve" smooth="yes"/>
      <point x="536" y="696"/>
      <point x="598" y="696" type="qcurve" smooth="yes"/>
      <point x="675" y="696"/>
      <point x="715" y="643" type="qcurve" smooth="yes"/>
      <point x="760" y="584"/>
      <point x="760" y="510" type="qcurve" smooth="yes"/>
      <point x="760" y="318" type="line"/>
      <point x="502" y="318" type="line"/>
      <point x="505" y="177"/>
      <point x="505" y="168" type="qcurve"/>
      <point x="508" y="112"/>
      <point x="586" y="112" type="qcurve" smooth="yes"/>
      <point x="640" y="112"/>
      <point x="646" y="154" type="qcurve"/>
      <point x="649" y="201" type="line"/>
      <point x="754" y="201" type="line"/>
      <point x="751" y="141" type="line" smooth="yes"/>
      <point x="748" y="83"/>
      <point x="709" y="45" type="qcurve" smooth="yes"/>
      <point x="666" y="0"/>
      <point x="598" y="0" type="qcurve" smooth="yes"/>
      <point x="519" y="0"/>
      <point x="489" y="19" type="qcurve" smooth="yes"/>
      <point x="463" y="36"/>
      <point x="442" y="60" type="qcurve"/>
      <point x="435" y="47"/>
      <point x="403" y="25" type="qcurve" smooth="yes"/>
      <point x="367" y="0"/>
      <point x="307" y="0" type="qcurve" smooth="yes"/>
      <point x="225" y="0"/>
      <point x="190" y="39" type="qcurve"/>
      <point x="151" y="78"/>
      <point x="142" y="147" type="qcurve" smooth="yes"/>
      <point x="137" y="187"/>
      <point x="137" y="218" type="qcurve" smooth="yes"/>
      <point x="137" y="259"/>
      <point x="145" y="286" type="qcurve" smooth="yes"/>
      <point x="161" y="341"/>
      <point x="211" y="382" type="qcurve" smooth="yes"/>
      <point x="233" y="400"/>
      <point x="298" y="412" type="qcurve" smooth="yes"/>
      <point x="336" y="419"/>
      <point x="378" y="419" type="qcurve" smooth="yes"/>
      <point x="392" y="419"/>
    </contour>
    <contour>
      <point x="502" y="418" type="qcurve"/>
      <point x="664" y="418" type="line"/>
      <point x="664" y="507" type="line" smooth="yes"/>
      <point x="664" y="540"/>
      <point x="640" y="567" type="qcurve" smooth="yes"/>
      <point x="623" y="586"/>
      <point x="589" y="588" type="qcurve"/>
      <point x="582" y="588" type="line" smooth="yes"/>
      <point x="553" y="588"/>
      <point x="529" y="573" type="qcurve" smooth="yes"/>
      <point x="510" y="561"/>
      <point x="505" y="535" type="qcurve" smooth="yes"/>
      <point x="502" y="518"/>
    </contour>
    <contour>
      <point x="406" y="315" type="qcurve"/>
      <point x="394" y="316"/>
      <point x="383" y="316" type="qcurve" smooth="yes"/>
      <point x="353" y="316"/>
      <point x="331" y="310" type="qcurve" smooth="yes"/>
      <point x="291" y="299"/>
      <point x="271" y="279" type="qcurve"/>
      <point x="247" y="252"/>
      <point x="247" y="205" type="qcurve" smooth="yes"/>
      <point x="247" y="162"/>
      <point x="262" y="139" type="qcurve" smooth="yes"/>
      <point x="282" y="111"/>
      <point x="311" y="111" type="qcurve" smooth="yes"/>
      <point x="313" y="111" type="line" smooth="yes"/>
      <point x="356" y="112"/>
      <point x="382" y="142" type="qcurve" smooth="yes"/>
      <point x="395" y="157"/>
      <point x="403" y="216" type="qcurve"/>
      <point x="404" y="219"/>
    </contour>
  </outline>
</glyph>
<glyph name="eth" format="2">
  <advance width="886"/>
  <unicode hex="00F0"/>
  <outline>
    <contour>
      <point x="388" y="0" type="line" smooth="yes"/>
      <point x="130" y="0"/>
      <point x="130" y="258" type="qcurve" smooth="yes"/>
      <point x="130" y="366" type="line" smooth="yes"/>
      <point x="130" y="600"/>
      <point x="388" y="600" type="qcurve" smooth="yes"/>
      <point x="451" y="600" type="line"/>
      <point x="319" y="721" type="line"/>
      <point x="228" y="621" type="line"/>
      <point x="183" y="663"/>
      <point x="138" y="709" type="qcurve"/>
      <point x="229" y="809" type="line"/>
      <point x="117" y="915" type="line"/>
      <point x="153" y="963"/>
      <point x="198" y="1014" type="qcurve"/>
      <point x="319" y="899" type="line"/>
      <point x="411" y="1002" type="line"/>
      <point x="502" y="917" type="line"/>
      <point x="408" y="810" type="line"/>
      <point x="715" y="517" type="line"/>
      <point x="769" y="456"/>
      <point x="769" y="366" type="qcurve" smooth="yes"/>
      <point x="769" y="258" type="line" smooth="yes"/>
      <point x="769" y="0"/>
      <point x="511" y="0" type="qcurve" smooth="yes"/>
    </contour>
    <contour>
      <point x="388" y="129" type="qcurve" smooth="yes"/>
      <point x="511" y="129" type="line" smooth="yes"/>
      <point x="640" y="129"/>
      <point x="640" y="258" type="qcurve" smooth="yes"/>
      <point x="640" y="360" type="line" smooth="yes"/>
      <point x="640" y="471"/>
      <point x="511" y="471" type="qcurve" smooth="yes"/>
      <point x="388" y="471" type="line" smooth="yes"/>
      <point x="259" y="471"/>
      <point x="259" y="361" type="qcurve" smooth="yes"/>
      <point x="259" y="258" type="line" smooth="yes"/>
      <point x="259" y="129"/>
    </contour>
  </outline>
</glyph>
<glyph name="thorn" format="2">
  <advance width="886"/>
  <unicode hex="00FE"/>
  <outline>
    <contour>
      <point x="124" y="-278" type="line"/>
      <point x="124" y="720" type="line"/>
      <point x="253" y="720" type="line"/>
      <point x="253" y="480" type="line"/>
      <point x="569" y="480" type="line" smooth="yes"/>
      <point x="763" y="480"/>
      <point x="763" y="287" type="qcurve" smooth="yes"/>
      <point x="763" y="194" type="line" smooth="yes"/>
      <point x="763" y="0"/>
      <point x="569" y="0" type="qcurve" smooth="yes"/>
      <point x="253" y="0" type="line"/>
      <point x="253" y="-278" type="line"/>
    </contour>
    <contour>
      <point x="253" y="130" type="line"/>
      <point x="569" y="130" type="line" smooth="yes"/>
      <point x="634" y="130"/>
      <point x="634" y="194" type="qcurve" smooth="yes"/>
      <point x="634" y="287" type="line" smooth="yes"/>
      <point x="634" y="352"/>
      <point x="569" y="352" type="qcurve" smooth="yes"/>
      <point x="253" y="352" type="line"/>
    </contour>
  </outline>
</glyph>
<glyph name="dcaron" format="2">
  <advance width="1150"/>
  <unicode hex="010F"/>
  <outline>
    <contour>
      <point x="444" y="102" type="qcurve" smooth="yes"/>
      <point x="534" y="102"/>
      <point x="576" y="153" type="qcurve" smooth="yes"/>
      <point x="639" y="228"/>
      <point x="639" y="336" type="qcurve" smooth="yes"/>
      <point x="639" y="445"/>
      <point x="576" y="522" type="qcurve" smooth="yes"/>
      <point x="534" y="573"/>
      <point x="444" y="573" type="qcurve" smooth="yes"/>
      <point x="354" y="573"/>
      <point x="312" y="522" type="qcurve" smooth="yes"/>
      <point x="249" y="445"/>
      <point x="249" y="336" type="qcurve" smooth="yes"/>
      <point x="249" y="228"/>
      <point x="312" y="153" type="qcurve" smooth="yes"/>
      <point x="354" y="102"/>
    </contour>
    <contour>
      <point x="751" y="972" type="line"/>
      <point x="751" y="0" type="line"/>
      <point x="639" y="0" type="line"/>
      <point x="639" y="88" type="line"/>
      <point x="613" y="48"/>
      <point x="550" y="16" type="qcurve" smooth="yes"/>
      <point x="498" y="-11"/>
      <point x="429" y="-11" type="qcurve" smooth="yes"/>
      <point x="289" y="-11"/>
      <point x="231" y="58" type="qcurve" smooth="yes"/>
      <point x="135" y="171"/>
      <point x="135" y="336" type="qcurve" smooth="yes"/>
      <point x="135" y="500"/>
      <point x="231" y="613" type="qcurve" smooth="yes"/>
      <point x="289" y="682"/>
      <point x="429" y="682" type="qcurve" smooth="yes"/>
      <point x="499" y="682"/>
      <point x="550" y="655" type="qcurve" smooth="yes"/>
      <point x="619" y="619"/>
      <point x="639" y="583" type="qcurve"/>
      <point x="639" y="972" type="line"/>
    </contour>
    <contour>
      <point x="772" y="777" type="line"/>
      <point x="898" y="991" type="line"/>
      <point x="1048" y="991" type="line"/>
      <point x="888" y="777" type="line"/>
    </contour>
  </outline>
</glyph>
<glyph name="jcircumflex" format="2">
  <advance width="886"/>
  <unicode hex="0135"/>
  <outline>
    <contour>
      <point x="340" y="664" type="line"/>
      <point x="609" y="664" type="line"/>
      <point x="609" y="0" type="line"/>
      <point x="608" y="-210"/>
      <point x="396" y="-210" type="qcurve" smooth="yes"/>
      <point x="273" y="-210" type="line"/>
      <point x="273" y="-104" type="line"/>
      <point x="396" y="-104" type="line" smooth="yes"/>
      <point x="500" y="-104"/>
      <point x="501" y="0" type="qcurve" smooth="yes"/>
      <point x="501" y="563" type="line"/>
      <point x="340" y="563" type="line"/>
    </contour>
    <contour>
      <point x="345" y="986" type="line"/>
      <point x="551" y="986" type="line"/>
      <point x="707" y="770" type="line"/>
      <point x="566" y="770" type="line"/>
      <point x="443" y="899" type="line"/>
      <point x="320" y="770" type="line"/>
      <point x="179" y="770" type="line"/>
    </contour>
  </outline>
</glyph>
<glyph name="Lcaron" format="2">
  <advance width="886"/>
  <unicode hex="013D"/>
  <outline>
    <contour>
      <point x="158" y="2" type="line"/>
      <point x="158" y="885" type="line"/>
      <point x="281" y="885" type="line"/>
      <point x="281" y="122" type="line"/>
      <point x="728" y="122" type="line"/>
      <point x="728" y="2" type="line"/>
    </contour>
    <contour>
      <point x="338" y="728" type="line"/>
      <point x="464" y="942" type="line"/>
      <point x="614" y="942" type="line"/>
      <point x="454" y="728" type="line"/>
    </contour>
  </outline>
</glyph>
<glyph name="lcaron" format="2">
  <advance width="886"/>
  <unicode hex="013E"/>
  <outline>
    <contour>
      <point x="442" y="777" type="line"/>
      <point x="568" y="991" type="line"/>
      <point x="718" y="991" type="line"/>
      <point x="558" y="777" type="line"/>
    </contour>
    <contour>
      <point x="267" y="978" type="line"/>
      <point x="379" y="978" type="line"/>
      <point x="379" y="275" type="line" smooth="yes"/>
      <point x="379" y="178"/>
      <point x="427" y="138" type="qcurve" smooth="yes"/>
      <point x="462" y="109"/>
      <point x="570" y="109" type="qcurve" smooth="yes"/>
      <point x="619" y="109" type="line"/>
      <point x="619" y="0" type="line"/>
      <point x="540" y="0" type="line" smooth="yes"/>
      <point x="394" y="0"/>
      <point x="330" y="53" type="qcurve" smooth="yes"/>
      <point x="267" y="103"/>
      <point x="267" y="252" type="qcurve" smooth="yes"/>
    </contour>
  </outline>
</glyph>
<glyph name="Eng" format="2">
  <advance width="886"/>
  <unicode hex="014A"/>
  <outline>
    <contour>
      <point x="741" y="0" type="line"/>
      <point x="740" y="-240"/>
      <point x="521" y="-254" type="qcurve"/>
      <point x="473" y="-254" type="line"/>
      <point x="473" y="-150" type="line"/>
      <point x="521" y="-150" type="line" smooth="yes"/>
      <point x="601" y="-150"/>
      <point x="620" y="-62" type="qcurve"/>
      <point x="599" y="-30"/>
      <point x="585" y="0" type="qcurve"/>
    </contour>
    <contour>
      <point x="146" y="0" type="line"/>
      <point x="146" y="894" type="line"/>
      <point x="302" y="894" type="line"/>
      <point x="620" y="223" type="line"/>
      <point x="620" y="894" type="line"/>
      <point x="740" y="894" type="line"/>
      <point x="740" y="0" type="line"/>
      <point x="584" y="0" type="line"/>
      <point x="266" y="671" type="line"/>
      <point x="266" y="0" type="line"/>
    </contour>
  </outline>
</glyph>
<glyph name="eng" format="2">
  <advance width="886"/>
  <unicode hex="014B"/>
  <outline>
    <contour>
      <point x="738" y="0" type="line"/>
      <point x="737" y="-240"/>
      <point x="522" y="-254" type="qcurve"/>
      <point x="474" y="-254" type="line"/>
      <point x="474" y="-150" type="line"/>
      <point x="522" y="-150" type="line" smooth="yes"/>
      <point x="626" y="-150"/>
      <point x="626" y="0" type="qcurve"/>
    </contour>
    <contour>
      <point x="260" y="586" type="line"/>
      <point x="296" y="627"/>
      <point x="337" y="649" type="qcurve" smooth="yes"/>
      <point x="397" y="679"/>
      <point x="471" y="679" type="qcurve" smooth="yes"/>
      <point x="608" y="679"/>
      <point x="671" y="603" type="qcurve" smooth="yes"/>
      <point x="737" y="523"/>
      <point x="737" y="360" type="qcurve" smooth="yes"/>
      <point x="737" y="0" type="line"/>
      <point x="626" y="0" type="line"/>
      <point x="626" y="360" type="line" smooth="yes"/>
      <point x="626" y="487"/>
      <point x="593" y="526" type="qcurve" smooth="yes"/>
      <point x="554" y="576"/>
      <point x="464" y="576" type="qcurve" smooth="yes"/>
      <point x="362" y="576"/>
      <point x="307" y="495" type="qcurve" smooth="yes"/>
      <point x="260" y="426"/>
      <point x="260" y="303" type="qcurve" smooth="yes"/>
      <point x="260" y="0" type="line"/>
      <point x="149" y="0" type="line"/>
      <point x="149" y="673" type="line"/>
      <point x="260" y="673" type="line"/>
    </contour>
  </outline>
</glyph>
<glyph name="longs" format="2">
  <advance width="886"/>
  <unicode hex="017F"/>
  <outline>
    <contour>
      <point x="-50" y="-190" type="line"/>
      <point x="936" y="-190" type="line"/>
      <point x="936" y="-299" type="line"/>
      <point x="-50" y="-299" type="line"/>
    </contour>
  </outline>
</glyph>
<glyph name="circumflex" format="2">
  <advance width="886"/>
  <unicode hex="02C6"/>
  <outline>
    <contour>
      <point x="345" y="986" type="line"/>
      <point x="551" y="986" type="line"/>
      <point x="707" y="770" type="line"/>
      <point x="566" y="770" type="line"/>
      <point x="443" y="899" type="line"/>
      <point x="320" y="770" type="line"/>
      <point x="179" y="770" type="line"/>
    </contour>
  </outline>
</glyph>
<glyph name="caron" format="2">
  <advance width="886"/>
  <unicode hex="02C7"/>
  <outline>
    <contour>
      <point x="179" y="986" type="line"/>
      <point x="320" y="986" type="line"/>
      <point x="443" y="857" type="line"/>
      <point x="566" y="986" type="line"/>
      <point x="707" y="986" type="line"/>
      <point x="551" y="770" type="line"/>
      <point x="345" y="770" type="line"/>
    </contour>
  </outline>
</glyph>
<glyph name="uni02C8" format="2">
  <advance width="886"/>
  <unicode hex="02C8"/>
  <outline>
    <contour>
      <point x="385" y="983" type="line"/>
      <point x="507" y="983" type="line"/>
      <point x="501" y="785" type="line"/>
      <point x="379" y="785" type="line"/>
    </contour>
  </outline>
</glyph>
<glyph name="breve" format="2">
  <advance width="886"/>
  <unicode hex="02D8"/>
  <outline>
    <contour>
      <point x="156" y="915" type="qcurve"/>
      <point x="200" y="960"/>
      <point x="237" y="1003" type="qcurve"/>
      <point x="340" y="907"/>
      <point x="441" y="907" type="qcurve" smooth="yes"/>
      <point x="542" y="907"/>
      <point x="642" y="1003" type="qcurve"/>
      <point x="689" y="960"/>
      <point x="730" y="924" type="qcurve"/>
      <point x="587" y="780"/>
      <point x="441" y="780" type="qcurve" smooth="yes"/>
      <point x="291" y="780"/>
    </contour>
  </outline>
</glyph>
<glyph name="ring" format="2">
  <advance width="886"/>
  <unicode hex="02DA"/>
  <outline>
    <contour>
      <point x="443" y="776" type="qcurve" smooth="yes"/>
      <point x="533" y="776"/>
      <point x="533" y="866" type="qcurve" smooth="yes"/>
      <point x="533" y="947"/>
      <point x="443" y="947" type="qcurve" smooth="yes"/>
      <point x="353" y="947"/>
      <point x="353" y="866" type="qcurve" smooth="yes"/>
      <point x="353" y="776"/>
    </contour>
    <contour>
      <point x="443" y="686" type="qcurve" smooth="yes"/>
      <point x="263" y="686"/>
      <point x="263" y="866" type="qcurve" smooth="yes"/>
      <point x="263" y="1046"/>
      <point x="443" y="1046" type="qcurve" smooth="yes"/>
      <point x="623" y="1046"/>
      <point x="623" y="866" type="qcurve" smooth="yes"/>
      <point x="623" y="686"/>
    </contour>
  </outline>
</glyph>
<glyph name="ogonek" format="2">
  <advance width="886"/>
  <unicode hex="02DB"/>
  <outline>
    <contour>
      <point x="499" y="-166" type="line"/>
      <point x="687" y="-166" type="line"/>
      <point x="687" y="-274" type="line"/>
      <point x="379" y="-274" type="line"/>
      <point x="379" y="0" type="line"/>
      <point x="499" y="0" type="line"/>
    </contour>
  </outline>
</glyph>
<glyph name="tilde" format="2">
  <advance width="886"/>
  <unicode hex="02DC"/>
  <outline>
    <contour>
      <point x="181" y="788" type="line"/>
      <point x="181" y="868"/>
      <point x="213" y="918" type="qcurve"/>
      <point x="253" y="974"/>
      <point x="337" y="974" type="qcurve" smooth="yes"/>
      <point x="387" y="974"/>
      <point x="433" y="942" type="qcurve"/>
      <point x="493" y="906" type="line"/>
      <point x="525" y="884"/>
      <point x="543" y="884" type="qcurve" smooth="yes"/>
      <point x="567" y="884"/>
      <point x="579" y="904" type="qcurve" smooth="yes"/>
      <point x="590" y="922"/>
      <point x="590" y="948" type="qcurve"/>
      <point x="705" y="948" type="line"/>
      <point x="705" y="849"/>
      <point x="657" y="803" type="qcurve" smooth="yes"/>
      <point x="619" y="768"/>
      <point x="543" y="768" type="qcurve" smooth="yes"/>
      <point x="501" y="768"/>
      <point x="459" y="794" type="qcurve" smooth="yes"/>
      <point x="387" y="841" type="line"/>
      <point x="370" y="856"/>
      <point x="337" y="856" type="qcurve" smooth="yes"/>
      <point x="315" y="856"/>
      <point x="303" y="832" type="qcurve"/>
      <point x="295" y="812"/>
      <point x="295" y="788" type="qcurve"/>
    </contour>
  </outline>
</glyph>
<glyph name="hungarumlaut" format="2">
  <advance width="886"/>
  <unicode hex="02DD"/>
  <outline>
    <contour>
      <point x="506" y="983" type="line"/>
      <point x="629" y="983" type="line"/>
      <point x="623" y="785" type="line"/>
      <point x="500" y="785" type="line"/>
    </contour>
    <contour>
      <point x="263" y="983" type="line"/>
      <point x="386" y="983" type="line"/>
      <point x="380" y="785" type="line"/>
      <point x="257" y="785" type="line"/>
    </contour>
  </outline>
</glyph>
<glyph name="pi" format="2">
  <advance width="620"/>
  <unicode hex="03C0"/>
  <outline>
    <contour>
      <point x="183" y="0" type="line"/>
      <point x="183" y="394" type="line"/>
      <point x="97" y="394" type="line"/>
      <point x="97" y="480" type="line"/>
      <point x="523" y="480" type="line"/>
      <point x="523" y="394" type="line"/>
      <point x="437" y="394" type="line"/>
      <point x="437" y="0" type="line"/>
      <point x="351" y="0" type="line"/>
      <point x="351" y="394" type="line"/>
      <point x="269" y="394" type="line"/>
      <point x="269" y="0" type="line"/>
    </contour>
  </outline>
</glyph>
<glyph name="Euro" format="2">
  <advance width="885"/>
  <unicode hex="20A0"/>
  <outline>
    <contour>
      <point x="609" y="437" type="line"/>
      <point x="584" y="336" type="line"/>
      <point x="361" y="336" type="line"/>
      <point x="372" y="230"/>
      <point x="471" y="107"/>
      <point x="545" y="107" type="qcurve" smooth="yes"/>
      <point x="605" y="107"/>
      <point x="691" y="164"/>
      <point x="693" y="206" type="qcurve"/>
      <point x="826" y="206" type="line"/>
      <point x="811" y="106"/>
      <point x="667" y="-8"/>
      <point x="553" y="-8" type="qcurve" smooth="yes"/>
      <point x="466" y="-8"/>
      <point x="330" y="65"/>
      <point x="288" y="135" type="qcurve" smooth="yes"/>
      <point x="265" y="171"/>
      <point x="230" y="279"/>
      <point x="224" y="336" type="qcurve"/>
      <point x="68" y="336" type="line"/>
      <point x="96" y="437" type="line"/>
      <point x="216" y="437" type="line"/>
      <point x="215" y="447"/>
      <point x="215" y="460" type="qcurve" smooth="yes"/>
      <point x="215" y="520" type="line" smooth="yes"/>
      <point x="215" y="531"/>
      <point x="218" y="554" type="qcurve"/>
      <point x="82" y="554" type="line"/>
      <point x="108" y="655" type="line"/>
      <point x="227" y="655" type="line"/>
      <point x="248" y="798"/>
      <point x="429" y="977"/>
      <point x="556" y="977" type="qcurve" smooth="yes"/>
      <point x="671" y="977"/>
      <point x="810" y="866"/>
      <point x="823" y="765" type="qcurve"/>
      <point x="689" y="765" type="line"/>
      <point x="685" y="812"/>
      <point x="611" y="865"/>
      <point x="548" y="865" type="qcurve" smooth="yes"/>
      <point x="480" y="865"/>
      <point x="382" y="753"/>
      <point x="364" y="655" type="qcurve"/>
      <point x="667" y="655" type="line"/>
      <point x="641" y="554" type="line"/>
      <point x="355" y="554" type="line"/>
      <point x="353" y="532"/>
      <point x="352" y="504"/>
      <point x="352" y="493" type="qcurve" smooth="yes"/>
      <point x="352" y="458" type="line" smooth="yes"/>
      <point x="352" y="447"/>
      <point x="353" y="437" type="qcurve"/>
    </contour>
  </outline>
</glyph>
<glyph name=".notdef" format="2">
  <advance width="886"/>
  <outline>
    <contour>
      <point x="149" y="-228" type="line"/>
      <point x="149" y="1039" type="line"/>
      <point x="737" y="1039" type="line"/>
      <point x="737" y="-228" type="line"/>
    </contour>
    <contour>
      <point x="203" y="-153" type="line"/>
      <point x="682" y="-153" type="line"/>
      <point x="682" y="963" type="line"/>
      <point x="203" y="963" type="line"/>
    </contour>
  </outline>
</glyph>
